<svg width="10" height="14" viewBox="0 0 10 14" fill="none" xmlns="http://www.w3.org/2000/svg">
<path d="M8.88913 6.45372L2.65896 0.223657C2.51486 0.0794465 2.3225 0 2.1174 0C1.9123 0 1.71994 0.0794465 1.57584 0.223657L1.11703 0.682352C0.818484 0.981244 0.818484 1.46703 1.11703 1.76547L6.34867 6.9971L1.11123 12.2345C0.967134 12.3787 0.887573 12.571 0.887573 12.776C0.887573 12.9812 0.967134 13.1734 1.11123 13.3178L1.57004 13.7763C1.71425 13.9206 1.90649 14 2.1116 14C2.3167 14 2.50906 13.9206 2.65315 13.7763L8.88913 7.54059C9.03357 7.39592 9.11291 7.20277 9.11245 6.99744C9.11291 6.79131 9.03357 6.59827 8.88913 6.45372Z" fill="black"/>
</svg>
