<svg width="10" height="14" viewBox="0 0 10 14" fill="none" xmlns="http://www.w3.org/2000/svg">
<path d="M1.11111 7.54653L7.34129 13.7766C7.48538 13.9208 7.67774 14.0002 7.88284 14.0002C8.08795 14.0002 8.2803 13.9208 8.4244 13.7766L8.88321 13.3179C9.18176 13.019 9.18176 12.5332 8.88321 12.2348L3.65158 7.00315L8.88901 1.76571C9.03311 1.6215 9.11267 1.42926 9.11267 1.22427C9.11267 1.01905 9.03311 0.826808 8.88901 0.682484L8.4302 0.223903C8.28599 0.0796924 8.09375 0.000246292 7.88865 0.000246292C7.68354 0.000246292 7.49119 0.0796924 7.34709 0.223903L1.11111 6.45966C0.966672 6.60432 0.887339 6.79747 0.887795 7.00281C0.887339 7.20893 0.966672 7.40197 1.11111 7.54653Z" fill="black"/>
</svg>
