<svg width="24" height="24" viewBox="0 0 24 24" fill="none" xmlns="http://www.w3.org/2000/svg">
<path d="M12 3C1.3411e-07 3.38571 1.3411e-07 20.6143 12 21C24 20.6143 24 3.38571 12 3Z" fill="#F44336"/>
<path d="M12.9084 12L15.6327 9.3C16.2165 8.72142 15.3084 7.82142 14.7246 8.39999L12.0003 11.1L9.27597 8.39999C8.69219 7.82142 7.78408 8.72142 8.36786 9.3L11.0922 12L8.36786 14.7C7.78408 15.2786 8.69219 16.1786 9.27597 15.6L12.0003 12.9L14.7246 15.6C15.3084 16.1786 16.2165 15.2786 15.6327 14.7L12.9084 12Z" fill="#EEEEEE"/>
</svg>
