<svg width="32" height="32" viewBox="0 0 32 32" fill="none" xmlns="http://www.w3.org/2000/svg">
<g clip-path="url(#clip0_420_2)">
<path d="M0 12L15.408 21.806C15.584 21.936 15.792 22 16 22C16.208 22 16.416 21.936 16.592 21.806L32 12L16.6 0.19999C16.4268 0.0704747 16.2163 0.000488281 16 0.000488281C15.7837 0.000488281 15.5732 0.0704747 15.4 0.19999L0 12Z" fill="#64B5F6"/>
<path d="M26 0H6C4.898 0 4 0.898 4 2V24C4 24.552 4.448 25 5 25H27C27.552 25 28 24.552 28 24V2C28 0.898 27.104 0 26 0Z" fill="#ECEFF1"/>
<path d="M9 6H23C23.552 6 24 5.552 24 5C24 4.448 23.552 4 23 4H9C8.448 4 8 4.448 8 5C8 5.552 8.448 6 9 6ZM23 8H9C8.448 8 8 8.448 8 9C8 9.552 8.448 10 9 10H23C23.552 10 24 9.552 24 9C24 8.448 23.552 8 23 8ZM17 12H9C8.448 12 8 12.448 8 13C8 13.552 8.448 14 9 14H17C17.552 14 18 13.552 18 13C18 12.448 17.552 12 17 12Z" fill="#90A4AE"/>
<path d="M16.592 21.806C16.416 21.936 16.208 22 16 22C15.792 22 15.584 21.936 15.408 21.806L0 12V30C0 31.104 0.896 32 2 32H30C31.104 32 32 31.104 32 30V12L16.592 21.806Z" fill="#1E88E5"/>
<path d="M30 32H2C0.878 32 0 31.122 0 30C8.94333e-05 29.8431 0.037061 29.6884 0.107932 29.5484C0.178803 29.4084 0.28159 29.287 0.408 29.194L15.408 19.194C15.584 19.064 15.792 19 16 19C16.208 19 16.416 19.064 16.592 19.194L31.592 29.194C31.7184 29.287 31.8212 29.4084 31.8921 29.5484C31.9629 29.6884 31.9999 29.8431 32 30C32 31.122 31.122 32 30 32Z" fill="#2196F3"/>
</g>
<defs>
<clipPath id="clip0_420_2">
<rect width="32" height="32" fill="white"/>
</clipPath>
</defs>
</svg>
