<svg width="24" height="24" viewBox="0 0 24 24" fill="none" xmlns="http://www.w3.org/2000/svg">
<path d="M18.2 12.2412V10.5586C18.2 8.10391 16.3436 6.0234 13.8 5.34387V4.58203C13.8 3.7097 12.9925 3 12 3C11.0075 3 10.2 3.7097 10.2 4.58203V5.34387C7.65645 6.0234 5.80006 8.10388 5.80006 10.5586V12.2412C5.80006 14.3974 4.86494 16.442 3.16699 17.9983C3.08558 18.0729 3.03091 18.1669 3.00977 18.2685C2.98863 18.3702 3.00197 18.4751 3.04811 18.5702C3.09425 18.6653 3.17117 18.7463 3.26931 18.8033C3.36744 18.8603 3.48246 18.8906 3.60007 18.8906H9.0604C9.33912 20.0927 10.5513 21 12 21C13.4488 21 14.6609 20.0927 14.9397 18.8906H20.4C20.5176 18.8906 20.6326 18.8603 20.7307 18.8033C20.8288 18.7463 20.9057 18.6653 20.9519 18.5702C20.998 18.4751 21.0114 18.3702 20.9902 18.2685C20.9691 18.1669 20.9145 18.0729 20.8331 17.9983C19.1351 16.442 18.2 14.3974 18.2 12.2412ZM11.4 4.58203C11.4 4.29125 11.6692 4.05469 12 4.05469C12.3309 4.05469 12.6 4.29125 12.6 4.58203V5.13497C12.4025 5.11823 12.2024 5.10938 12 5.10938C11.7976 5.10938 11.5975 5.11823 11.4 5.13497V4.58203ZM12 19.9453C11.2178 19.9453 10.5509 19.5044 10.3032 18.8906H13.6968C13.4491 19.5044 12.7822 19.9453 12 19.9453ZM4.89326 17.8359C6.2597 16.2261 7.00005 14.2778 7.00005 12.2412V10.5586C7.00005 8.13545 9.24304 6.16406 12 6.16406C14.757 6.16406 17 8.13545 17 10.5586V12.2412C17 14.2778 17.7404 16.2261 19.1068 17.8359H4.89326ZM19.8 10.5586C19.8 10.8498 20.0686 11.0859 20.4 11.0859C20.7313 11.0859 21 10.8498 21 10.5586C21 8.4457 20.0638 6.45927 18.364 4.96523C18.1297 4.75932 17.7498 4.75929 17.5154 4.96523C17.2811 5.17118 17.2811 5.50506 17.5154 5.711C18.9887 7.00584 19.8 8.72741 19.8 10.5586ZM3.60007 11.0859C3.93143 11.0859 4.20007 10.8498 4.20007 10.5586C4.20007 8.72745 5.01142 7.00588 6.48461 5.71104C6.71893 5.50509 6.71893 5.17121 6.48461 4.96527C6.25034 4.75932 5.87042 4.75932 5.6361 4.96527C3.93623 6.4593 3.00007 8.4457 3.00007 10.5586C3.00007 10.8498 3.26871 11.0859 3.60007 11.0859Z" fill="white"/>
</svg>
