<svg width="24" height="24" viewBox="0 0 24 24" fill="none" xmlns="http://www.w3.org/2000/svg">
<path d="M13.1925 6.1654C14.5196 7.49249 15.8112 8.79588 17.1384 10.123C17.0554 10.2178 16.9488 10.3363 16.8303 10.4547C14.0219 13.263 11.2254 16.083 8.39339 18.8675C8.0379 19.2112 7.55207 19.4718 7.08994 19.6377C5.98792 20.005 4.86221 20.3013 3.74835 20.6093C3.06107 20.7989 2.50414 20.2776 2.69374 19.5785C3.03737 18.3106 3.41656 17.0428 3.8076 15.7749C3.89054 15.5143 4.06829 15.2654 4.25788 15.064C7.18473 12.1255 10.1116 9.19875 13.0503 6.2602C13.0858 6.24835 13.1332 6.2128 13.1925 6.1654ZM18.0508 9.2106C16.7237 7.87166 15.4202 6.56827 14.1523 5.27673C14.804 4.60133 15.4676 3.83115 16.2141 3.1676C17.0199 2.44482 18.2404 2.49221 19.0699 3.215C19.4372 3.53492 19.7809 3.87854 20.1008 4.24586C20.8355 5.08714 20.8473 6.35499 20.1008 7.18442C19.4491 7.88351 18.7381 8.52336 18.0508 9.2106Z" fill="black"/>
</svg>
