<svg width="24" height="24" viewBox="0 0 24 24" fill="none" xmlns="http://www.w3.org/2000/svg">
<path d="M17.75 10.75H13.5C13.4337 10.75 13.3701 10.7237 13.3232 10.6768C13.2763 10.6299 13.25 10.5663 13.25 10.5V6.25C13.25 5.55969 12.6903 5 12 5C11.3097 5 10.75 5.55969 10.75 6.25V10.5C10.75 10.5663 10.7237 10.6299 10.6768 10.6768C10.6299 10.7237 10.5663 10.75 10.5 10.75H6.25C5.55969 10.75 5 11.3097 5 12C5 12.6903 5.55969 13.25 6.25 13.25H10.5C10.5663 13.25 10.6299 13.2763 10.6768 13.3232C10.7237 13.3701 10.75 13.4337 10.75 13.5V17.75C10.75 18.4403 11.3097 19 12 19C12.6903 19 13.25 18.4403 13.25 17.75V13.5C13.25 13.4337 13.2763 13.3701 13.3232 13.3232C13.3701 13.2763 13.4337 13.25 13.5 13.25H17.75C18.4403 13.25 19 12.6903 19 12C19 11.3097 18.4403 10.75 17.75 10.75Z" fill="black"/>
</svg>
