<svg width="24" height="24" viewBox="0 0 24 24" fill="none" xmlns="http://www.w3.org/2000/svg">
<path d="M12 5C9.68412 5 7.8 6.65596 7.8 8.69141C7.8 10.7268 9.68412 12.3828 12 12.3828C14.3159 12.3828 16.2 10.7268 16.2 8.69141C16.2 6.65596 14.3159 5 12 5ZM12 11.5625C10.1988 11.5625 8.73333 10.2745 8.73333 8.69141C8.73333 7.10829 10.1988 5.82031 12 5.82031C13.8012 5.82031 15.2667 7.10829 15.2667 8.69141C15.2667 10.2745 13.8012 11.5625 12 11.5625ZM17.2256 14.7944C16.0757 13.7682 14.5514 13.2031 12.9333 13.2031H11.0667C9.44864 13.2031 7.92426 13.7682 6.77439 14.7944C5.63016 15.8155 5 17.1634 5 18.5898C5 18.8164 5.20894 19 5.46667 19H18.5333C18.7911 19 19 18.8164 19 18.5898C19 17.1634 18.3698 15.8155 17.2256 14.7944ZM5.95387 18.1797C6.18767 15.8531 8.39145 14.0234 11.0667 14.0234H12.9333C15.6085 14.0234 17.8123 15.8531 18.0461 18.1797H5.95387Z" fill="black"/>
</svg>
