<svg width="24" height="24" viewBox="0 0 24 24" fill="none" xmlns="http://www.w3.org/2000/svg">
<g clip-path="url(#clip0_282_5)">
<path d="M11.9999 4.49993C12.9948 4.5032 13.9791 4.70374 14.896 5.08995C15.8129 5.47616 16.644 6.04037 17.3414 6.74993H14.9999C14.801 6.74993 14.6102 6.82895 14.4696 6.9696C14.3289 7.11025 14.2499 7.30102 14.2499 7.49993C14.2499 7.69884 14.3289 7.88961 14.4696 8.03026C14.6102 8.17091 14.801 8.24993 14.9999 8.24993H18.1072C18.4765 8.24973 18.8306 8.10293 19.0918 7.84179C19.3529 7.58064 19.4997 7.2265 19.4999 6.85718V3.74993C19.4999 3.55102 19.4209 3.36025 19.2802 3.2196C19.1396 3.07895 18.9488 2.99993 18.7499 2.99993C18.551 2.99993 18.3602 3.07895 18.2196 3.2196C18.0789 3.36025 17.9999 3.55102 17.9999 3.74993V5.30843C16.7603 4.19202 15.2343 3.44274 13.593 3.14449C11.9516 2.84625 10.2596 3.01082 8.7065 3.61977C7.15337 4.22872 5.80042 5.25801 4.79917 6.59238C3.79791 7.92674 3.18789 9.51349 3.03741 11.1749C3.02772 11.2794 3.03989 11.3847 3.07315 11.4842C3.10642 11.5836 3.16003 11.6751 3.23059 11.7527C3.30115 11.8303 3.3871 11.8924 3.48297 11.935C3.57883 11.9775 3.68252 11.9997 3.78741 11.9999C3.97085 12.0023 4.14856 11.9361 4.28575 11.8143C4.42294 11.6925 4.50974 11.5239 4.52916 11.3414C4.69612 9.47449 5.55514 7.73746 6.93747 6.47156C8.3198 5.20566 10.1255 4.5024 11.9999 4.49993Z" fill="black"/>
<path d="M20.2133 12C20.0298 11.9977 19.8521 12.0639 19.7149 12.1857C19.5777 12.3075 19.4909 12.4761 19.4715 12.6585C19.3475 14.0859 18.8167 15.4478 17.942 16.5827C17.0673 17.7175 15.8854 18.5776 14.5366 19.0609C13.1878 19.5443 11.7286 19.6306 10.3323 19.3096C8.93588 18.9886 7.66087 18.2738 6.6585 17.25H9C9.19891 17.25 9.38968 17.171 9.53033 17.0303C9.67098 16.8897 9.75 16.6989 9.75 16.5C9.75 16.3011 9.67098 16.1103 9.53033 15.9697C9.38968 15.829 9.19891 15.75 9 15.75H5.89275C5.70982 15.7499 5.52867 15.7859 5.35965 15.8558C5.19063 15.9258 5.03706 16.0284 4.90771 16.1577C4.77836 16.2871 4.67577 16.4406 4.60582 16.6097C4.53586 16.7787 4.4999 16.9598 4.5 17.1427V20.25C4.5 20.4489 4.57902 20.6397 4.71967 20.7803C4.86032 20.921 5.05109 21 5.25 21C5.44891 21 5.63968 20.921 5.78033 20.7803C5.92098 20.6397 6 20.4489 6 20.25V18.6915C7.23962 19.8079 8.76556 20.5572 10.4069 20.8554C12.0483 21.1537 13.7403 20.9891 15.2934 20.3802C16.8465 19.7712 18.1995 18.7419 19.2007 17.4076C20.202 16.0732 20.812 14.4864 20.9625 12.825C20.9722 12.7206 20.96 12.6152 20.9268 12.5158C20.8935 12.4163 20.8399 12.3248 20.7693 12.2472C20.6988 12.1696 20.6128 12.1075 20.5169 12.065C20.4211 12.0224 20.3181 12.0003 20.2133 12Z" fill="black"/>
</g>
<defs>
<clipPath id="clip0_282_5">
<rect width="18" height="18" fill="white" transform="translate(3 3)"/>
</clipPath>
</defs>
</svg>
