<svg width="18" height="18" viewBox="0 0 18 18" fill="none" xmlns="http://www.w3.org/2000/svg">
<g clip-path="url(#clip0_416_274)">
<path fill-rule="evenodd" clip-rule="evenodd" d="M14.5388 16.457C15.1759 16.457 15.6925 15.881 15.6925 15.171V13.114C15.6877 13.0097 15.7021 12.9054 15.7347 12.8075C15.7673 12.7096 15.8175 12.62 15.8823 12.5443C15.947 12.4687 16.0249 12.4084 16.1113 12.3672C16.1976 12.326 16.2906 12.3048 16.3846 12.3048C16.4786 12.3048 16.5715 12.326 16.6579 12.3672C16.7443 12.4084 16.8222 12.4687 16.8869 12.5443C16.9516 12.62 17.0018 12.7096 17.0345 12.8075C17.0671 12.9054 17.0814 13.0097 17.0766 13.114V15.171C17.0776 15.9201 16.8108 16.6389 16.3349 17.1694C15.8589 17.6999 15.2129 17.9987 14.5388 18H12.693C12.5088 18 12.3322 17.9187 12.202 17.774C12.0718 17.6293 11.9986 17.4331 11.9986 17.2285C11.9986 17.0239 12.0718 16.8277 12.202 16.683C12.3322 16.5383 12.5088 16.457 12.693 16.457H14.5388ZM14.5388 1.543C15.1759 1.543 15.6925 2.118 15.6925 2.829V4.886C15.6877 4.99029 15.7021 5.09456 15.7347 5.19249C15.7673 5.29042 15.8175 5.37996 15.8823 5.45565C15.947 5.53135 16.0249 5.59162 16.1113 5.6328C16.1976 5.67399 16.2906 5.69523 16.3846 5.69523C16.4786 5.69523 16.5715 5.67399 16.6579 5.6328C16.7443 5.59162 16.8222 5.53135 16.8869 5.45565C16.9516 5.37996 17.0018 5.29042 17.0345 5.19249C17.0671 5.09456 17.0814 4.99029 17.0766 4.886V2.829C17.0776 2.07994 16.8108 1.36112 16.3349 0.830604C15.8589 0.300092 15.2129 0.00132503 14.5388 0H12.693C12.5088 0 12.3322 0.0812829 12.202 0.225967C12.0718 0.370651 11.9986 0.566886 11.9986 0.7715C11.9986 0.976115 12.0718 1.17235 12.202 1.31703C12.3322 1.46172 12.5088 1.543 12.693 1.543H14.5388ZM3.46213 16.457C3.31038 16.4567 3.16016 16.4233 3.02006 16.3585C2.87995 16.2937 2.7527 16.1989 2.64556 16.0795C2.53843 15.9601 2.45351 15.8184 2.39566 15.6625C2.3378 15.5066 2.30815 15.3396 2.30838 15.171V13.114C2.31317 13.0097 2.29882 12.9054 2.2662 12.8075C2.23358 12.7096 2.18338 12.62 2.11865 12.5443C2.05391 12.4687 1.976 12.4084 1.88964 12.3672C1.80329 12.326 1.71029 12.3048 1.61632 12.3048C1.52234 12.3048 1.42935 12.326 1.343 12.3672C1.25664 12.4084 1.17873 12.4687 1.11399 12.5443C1.04926 12.62 0.999053 12.7096 0.966435 12.8075C0.933817 12.9054 0.919466 13.0097 0.924254 13.114V15.171C0.923298 15.9201 1.19012 16.6389 1.66603 17.1694C2.14195 17.6999 2.788 17.9987 3.46213 18H5.30793C5.49208 18 5.66868 17.9187 5.79889 17.774C5.9291 17.6293 6.00225 17.4331 6.00225 17.2285C6.00225 17.0239 5.9291 16.8277 5.79889 16.683C5.66868 16.5383 5.49208 16.457 5.30793 16.457H3.46213ZM3.46213 1.543C2.82496 1.543 2.30838 2.118 2.30838 2.829V4.886C2.31317 4.99029 2.29882 5.09456 2.2662 5.19249C2.23358 5.29042 2.18338 5.37996 2.11865 5.45565C2.05391 5.53135 1.976 5.59162 1.88964 5.6328C1.80329 5.67399 1.71029 5.69523 1.61632 5.69523C1.52234 5.69523 1.42935 5.67399 1.343 5.6328C1.25664 5.59162 1.17873 5.53135 1.11399 5.45565C1.04926 5.37996 0.999053 5.29042 0.966435 5.19249C0.933817 5.09456 0.919466 4.99029 0.924254 4.886V2.829C0.923298 2.07994 1.19012 1.36112 1.66603 0.830604C2.14195 0.300092 2.788 0.00132503 3.46213 0H5.30793C5.49208 0 5.66868 0.0812829 5.79889 0.225967C5.9291 0.370651 6.00225 0.566886 6.00225 0.7715C6.00225 0.976115 5.9291 1.17235 5.79889 1.31703C5.66868 1.46172 5.49208 1.543 5.30793 1.543H3.46213ZM18 9C18.0001 9.1012 17.9823 9.20144 17.9475 9.29497C17.9127 9.38851 17.8617 9.47351 17.7974 9.54512C17.733 9.61673 17.6566 9.67353 17.5724 9.71229C17.4883 9.75105 17.3981 9.771 17.307 9.771H0.693865C0.509841 9.771 0.333353 9.68977 0.203228 9.54518C0.0731034 9.40059 0 9.20448 0 9C0 8.79552 0.0731034 8.59941 0.203228 8.45482C0.333353 8.31023 0.509841 8.229 0.693865 8.229H17.307C17.3981 8.229 17.4883 8.24895 17.5724 8.28771C17.6566 8.32647 17.733 8.38327 17.7974 8.45488C17.8617 8.52649 17.9127 8.61149 17.9475 8.70503C17.9823 8.79856 18.0001 8.8988 18 9Z" fill="black"/>
</g>
<defs>
<clipPath id="clip0_416_274">
<rect width="18" height="18" fill="white"/>
</clipPath>
</defs>
</svg>
