<svg width="18" height="18" viewBox="0 0 18 18" fill="none" xmlns="http://www.w3.org/2000/svg">
<path fill-rule="evenodd" clip-rule="evenodd" d="M13.6155 14.5928C14.1465 14.5928 14.577 14.1607 14.577 13.6282V12.0855C14.573 12.0073 14.585 11.9291 14.6122 11.8556C14.6394 11.7822 14.6812 11.715 14.7351 11.6583C14.7891 11.6015 14.854 11.5563 14.926 11.5254C14.998 11.4945 15.0755 11.4786 15.1538 11.4786C15.2321 11.4786 15.3096 11.4945 15.3815 11.5254C15.4535 11.5563 15.5184 11.6015 15.5724 11.6583C15.6263 11.715 15.6682 11.7822 15.6954 11.8556C15.7225 11.9291 15.7345 12.0073 15.7305 12.0855V13.6282C15.7313 14.19 15.509 14.7292 15.1123 15.127C14.7157 15.5249 14.1773 15.749 13.6155 15.75H12.0773C11.9238 15.75 11.7766 15.689 11.6681 15.5805C11.5596 15.472 11.4986 15.3248 11.4986 15.1714C11.4986 15.0179 11.5596 14.8707 11.6681 14.7622C11.7766 14.6537 11.9238 14.5928 12.0773 14.5928H13.6155ZM13.6155 3.40725C14.1465 3.40725 14.577 3.8385 14.577 4.37175V5.9145C14.573 5.99271 14.585 6.07092 14.6122 6.14437C14.6394 6.21782 14.6812 6.28497 14.7351 6.34174C14.7891 6.39851 14.854 6.44371 14.926 6.4746C14.998 6.50549 15.0755 6.52142 15.1538 6.52142C15.2321 6.52142 15.3096 6.50549 15.3815 6.4746C15.4535 6.44371 15.5184 6.39851 15.5724 6.34174C15.6263 6.28497 15.6682 6.21782 15.6954 6.14437C15.7225 6.07092 15.7345 5.99271 15.7305 5.9145V4.37175C15.7313 3.80995 15.509 3.27084 15.1123 2.87295C14.7157 2.47507 14.1773 2.25099 13.6155 2.25H12.0773C11.9238 2.25 11.7766 2.31096 11.6681 2.41948C11.5596 2.52799 11.4986 2.67516 11.4986 2.82863C11.4986 2.98209 11.5596 3.12926 11.6681 3.23777C11.7766 3.34629 11.9238 3.40725 12.0773 3.40725H13.6155ZM4.38452 14.5928C4.25805 14.5926 4.13287 14.5674 4.01611 14.5189C3.89935 14.4703 3.7933 14.3992 3.70401 14.3096C3.61473 14.2201 3.54396 14.1138 3.49575 13.9969C3.44753 13.88 3.42282 13.7547 3.42302 13.6282V12.0855C3.42701 12.0073 3.41505 11.9291 3.38786 11.8556C3.36068 11.7822 3.31884 11.715 3.26489 11.6583C3.21095 11.6015 3.14601 11.5563 3.07405 11.5254C3.00208 11.4945 2.92458 11.4786 2.84627 11.4786C2.76795 11.4786 2.69045 11.4945 2.61849 11.5254C2.54652 11.5563 2.48159 11.6015 2.42764 11.6583C2.37369 11.715 2.33185 11.7822 2.30467 11.8556C2.27749 11.9291 2.26553 12.0073 2.26952 12.0855V13.6282C2.26872 14.19 2.49108 14.7292 2.8877 15.127C3.28432 15.5249 3.82272 15.749 4.38452 15.75H5.92277C6.07623 15.75 6.2234 15.689 6.33192 15.5805C6.44043 15.472 6.50139 15.3248 6.50139 15.1714C6.50139 15.0179 6.44043 14.8707 6.33192 14.7622C6.2234 14.6537 6.07623 14.5928 5.92277 14.5928H4.38452ZM4.38452 3.40725C3.85352 3.40725 3.42302 3.8385 3.42302 4.37175V5.9145C3.42701 5.99271 3.41505 6.07092 3.38786 6.14437C3.36068 6.21782 3.31884 6.28497 3.26489 6.34174C3.21095 6.39851 3.14601 6.44371 3.07405 6.4746C3.00208 6.50549 2.92458 6.52142 2.84627 6.52142C2.76795 6.52142 2.69045 6.50549 2.61849 6.4746C2.54652 6.44371 2.48159 6.39851 2.42764 6.34174C2.37369 6.28497 2.33185 6.21782 2.30467 6.14437C2.27749 6.07092 2.26553 5.99271 2.26952 5.9145V4.37175C2.26872 3.80995 2.49108 3.27084 2.8877 2.87295C3.28432 2.47507 3.82272 2.25099 4.38452 2.25H5.92277C6.07623 2.25 6.2234 2.31096 6.33192 2.41948C6.44043 2.52799 6.50139 2.67516 6.50139 2.82863C6.50139 2.98209 6.44043 3.12926 6.33192 3.23777C6.2234 3.34629 6.07623 3.40725 5.92277 3.40725H4.38452ZM16.5 9C16.5001 9.0759 16.4853 9.15108 16.4563 9.22123C16.4273 9.29138 16.3848 9.35513 16.3311 9.40884C16.2775 9.46254 16.2138 9.50515 16.1437 9.53422C16.0736 9.56329 15.9984 9.57825 15.9225 9.57825H2.07752C1.92416 9.57825 1.77708 9.51733 1.66863 9.40888C1.56019 9.30044 1.49927 9.15336 1.49927 9C1.49927 8.84664 1.56019 8.69956 1.66863 8.59112C1.77708 8.48267 1.92416 8.42175 2.07752 8.42175H15.9225C15.9984 8.42175 16.0736 8.43671 16.1437 8.46578C16.2138 8.49485 16.2775 8.53746 16.3311 8.59116C16.3848 8.64487 16.4273 8.70862 16.4563 8.77877C16.4853 8.84892 16.5001 8.9241 16.5 9Z" fill="black"/>
</svg>
