<svg width="24" height="24" viewBox="0 0 24 24" fill="none" xmlns="http://www.w3.org/2000/svg">
<path d="M20.78 19.7198L15.6613 14.601C16.6529 13.3763 17.2498 11.82 17.2498 10.125C17.2498 6.19651 14.0534 3 10.1249 3C6.19644 3 3 6.19648 3 10.125C3 14.0535 6.19648 17.25 10.1249 17.25C11.8199 17.25 13.3761 16.653 14.6009 15.6615L19.7196 20.7802C19.8658 20.9265 20.0578 21 20.2498 21C20.4418 21 20.6338 20.9265 20.7801 20.7802C21.0733 20.487 21.0733 20.013 20.78 19.7198ZM10.1249 15.75C7.02296 15.75 4.5 13.227 4.5 10.125C4.5 7.02296 7.02296 4.49998 10.1249 4.49998C13.2269 4.49998 15.7499 7.02296 15.7499 10.125C15.7499 13.227 13.2269 15.75 10.1249 15.75Z" fill="black"/>
</svg>
