<svg width="20" height="20" viewBox="0 0 416 375" fill="none" xmlns="http://www.w3.org/2000/svg">
<path fill-rule="evenodd" clip-rule="evenodd" d="M389.973 27.64C392.8 24.6069 394.338 20.5953 394.265 16.4502C394.192 12.3051 392.513 8.35019 389.581 5.41872C386.65 2.48724 382.695 0.80805 378.55 0.734915C374.405 0.661779 370.393 2.20041 367.36 5.02665L26.0268 346.36C24.4548 347.825 23.1939 349.591 22.3194 351.554C21.445 353.516 20.9747 355.635 20.9368 357.784C20.8989 359.932 21.2941 362.066 22.0988 364.058C22.9035 366.05 24.1013 367.86 25.6206 369.379C27.14 370.899 28.9497 372.097 30.942 372.901C32.9343 373.706 35.0683 374.101 37.2166 374.063C39.3649 374.025 41.4836 373.555 43.4463 372.681C45.4089 371.806 47.1753 370.545 48.6401 368.973L109.376 308.237C138.539 321.976 172.096 331 208 331C265.259 331 316.587 308.024 353.493 279.693C371.989 265.507 387.264 249.677 398.059 234.125C408.555 219 416 202.424 416 187C416 171.576 408.533 155 398.059 139.875C387.264 124.323 371.989 108.515 353.515 94.3067C347.904 90.0187 341.995 85.8373 335.765 81.8693L389.973 27.64ZM312.533 105.101L274.752 142.883C284.938 158.267 289.493 176.699 287.646 195.057C285.799 213.415 277.663 230.57 264.617 243.617C251.57 256.663 234.415 264.799 216.057 266.646C197.699 268.493 179.267 263.938 163.883 253.752L133.653 283.96C157.23 293.734 182.478 298.842 208 299C256.789 299 301.44 279.309 334.016 254.307C350.272 241.827 363.115 228.323 371.776 215.885C380.715 203 384 192.909 384 187C384 181.091 380.715 171 371.776 158.115C363.115 145.677 350.272 132.173 334.016 119.693C327.339 114.573 320.171 109.667 312.533 105.101ZM187.307 230.328C196.264 234.606 206.327 236.002 216.11 234.323C225.893 232.644 234.915 227.974 241.934 220.955C248.953 213.937 253.623 204.914 255.302 195.131C256.98 185.348 255.585 175.285 251.307 166.328L187.307 230.328Z" fill="black"/>
<path d="M208 43C230.016 43 251.179 46.4133 270.955 52.1947C271.821 52.453 272.604 52.9332 273.227 53.5876C273.85 54.242 274.291 55.0479 274.507 55.9253C274.722 56.8028 274.705 57.7214 274.456 58.59C274.207 59.4587 273.736 60.2471 273.088 60.8773L255.509 78.4773C254.857 79.1248 254.051 79.5958 253.166 79.8458C252.282 80.0958 251.348 80.1168 250.453 79.9067C236.533 76.6736 222.291 75.0276 208 75C159.211 75 114.56 94.6907 81.984 119.693C65.728 132.173 52.8853 145.677 44.224 158.115C35.2853 171 32 181.091 32 187C32 192.909 35.2853 203 44.224 215.885C51.776 226.765 62.528 238.435 75.968 249.528C78.4427 251.555 78.6773 255.288 76.3947 257.571L61.2907 272.696C60.3656 273.634 59.1214 274.19 57.8053 274.254C56.4892 274.317 55.1974 273.883 54.1867 273.037C40.4517 261.711 28.2654 248.629 17.9413 234.125C7.46667 219 0 202.424 0 187C0 171.576 7.46667 155 17.9413 139.875C28.736 124.323 44.0107 108.515 62.4853 94.3067C99.4133 65.976 150.741 43 208 43Z" fill="black"/>
<path d="M208 107C210.517 107 213.035 107.107 215.488 107.341C219.691 107.747 221.205 112.76 218.24 115.747L192.363 141.603C185.472 143.985 179.213 147.902 174.057 153.057C168.902 158.213 164.985 164.472 162.603 171.363L136.747 197.24C133.76 200.227 128.747 198.691 128.341 194.488C127.299 183.399 128.583 172.214 132.113 161.65C135.642 151.086 141.338 141.376 148.837 133.14C156.335 124.905 165.471 118.326 175.659 113.824C185.847 109.323 196.862 106.999 208 107Z" fill="black"/>
</svg>
