<svg width="20" height="15" viewBox="0 0 416 288" fill="none" xmlns="http://www.w3.org/2000/svg">
<path fill-rule="evenodd" clip-rule="evenodd" d="M128 144C128 122.783 136.429 102.434 151.431 87.4315C166.434 72.4285 186.783 64 208 64C229.217 64 249.566 72.4285 264.569 87.4315C279.571 102.434 288 122.783 288 144C288 165.217 279.571 185.566 264.569 200.569C249.566 215.571 229.217 224 208 224C186.783 224 166.434 215.571 151.431 200.569C136.429 185.566 128 165.217 128 144ZM208 96C195.27 96 183.061 101.057 174.059 110.059C165.057 119.061 160 131.27 160 144C160 156.73 165.057 168.939 174.059 177.941C183.061 186.943 195.27 192 208 192C220.73 192 232.939 186.943 241.941 177.941C250.943 168.939 256 156.73 256 144C256 131.27 250.943 119.061 241.941 110.059C232.939 101.057 220.73 96 208 96Z" fill="black"/>
<path fill-rule="evenodd" clip-rule="evenodd" d="M44.224 115.115C35.2853 128 32 138.091 32 144C32 149.909 35.2853 160 44.224 172.885C52.8853 185.323 65.728 198.827 81.984 211.307C114.56 236.309 159.211 256 208 256C256.789 256 301.44 236.309 334.016 211.307C350.272 198.827 363.115 185.323 371.776 172.885C380.715 160 384 149.909 384 144C384 138.091 380.715 128 371.776 115.115C363.115 102.677 350.272 89.1733 334.016 76.6933C301.44 51.6907 256.789 32 208 32C159.211 32 114.56 51.6907 81.984 76.6933C65.728 89.1733 52.8853 102.677 44.224 115.115ZM62.4853 51.3067C99.4133 22.976 150.741 0 208 0C265.259 0 316.587 22.976 353.493 51.3067C371.989 65.4933 387.264 81.3227 398.059 96.8747C408.555 112 416 128.576 416 144C416 159.424 408.533 176 398.059 191.125C387.264 206.677 371.989 222.485 353.515 236.693C316.608 265.024 265.259 288 208 288C150.741 288 99.4133 265.024 62.5067 236.693C44.0107 222.507 28.736 206.677 17.9413 191.125C7.46667 176 0 159.424 0 144C0 128.576 7.46667 112 17.9413 96.8747C28.736 81.3227 44.0107 65.5147 62.4853 51.3067Z" fill="black"/>
</svg>
