<?xml version="1.0" encoding="utf-8"?>
<!-- Generator: Adobe Illustrator 27.5.0, SVG Export Plug-In . SVG Version: 6.00 Build 0)  -->
<svg version="1.1" xmlns="http://www.w3.org/2000/svg" xmlns:xlink="http://www.w3.org/1999/xlink" x="0px" y="0px"
	 viewBox="0 0 500 500" style="enable-background:new 0 0 500 500;" xml:space="preserve">
<g id="BACKGROUND">
	<rect style="fill:none;" width="500" height="500"/>
</g>
<g id="OBJECTS">
	<g>
		<path style="fill:#72A5B4;" d="M142.356,443.9c0,2.971-24.003,5.379-53.611,5.379c-29.609,0-53.612-2.408-53.612-5.379
			c0-2.971,24.003-5.379,53.612-5.379C118.353,438.521,142.356,440.929,142.356,443.9z"/>
		<path style="fill:#72A5B4;" d="M330.56,446.946c0,2.971-33.339,5.379-74.464,5.379s-74.464-2.408-74.464-5.379
			c0-2.971,33.339-5.379,74.464-5.379S330.56,443.975,330.56,446.946z"/>
		<path style="fill:#72A5B4;" d="M467.56,446.946c0,2.971-24.55,5.379-54.835,5.379c-30.284,0-54.835-2.408-54.835-5.379
			c0-2.971,24.55-5.379,54.835-5.379C443.01,441.567,467.56,443.975,467.56,446.946z"/>
		<g>
			<path style="fill:#EEBF83;" d="M293.914,212.818c0,0-10.555,24.756-15.353,34.352c-4.798,9.595-5.757,18.999,0.96,19.575
				c4.222,0.192,7.484-4.606,7.101-6.141c-0.384-1.535-3.454-0.576-3.454-0.576s4.222-0.192,4.222-6.717
				c12.858-12.858,23.029-43.564,23.029-43.564L293.914,212.818z"/>
			<path style="fill:#E7E7E7;" d="M267.568,166.476c3.454,1.343,31.719,20.434,39.971,34.059
				c-6.717,9.596-17.272,10.363-17.272,10.363l-17.464-11.131L267.568,166.476z"/>
			<path style="fill:#FFFFFF;" d="M308.307,197.465c1.535,1.727,4.222,9.596,4.606,12.858c-4.99,1.919-22.07,4.99-22.07,4.99
				l-4.222-6.909L308.307,197.465z"/>
			<path style="fill:#2F3234;" d="M221.995,429.656c-0.897,1.518-10.42,9.73-22.911,11.524c-3.519,0.138-1.656,3.174,3.174,4.141
				c4.83,0.966,20.633-0.966,26.775-2.139c6.142-1.173,6.97-1.932,6.832-3.657c-0.138-1.725-0.276-7.384-0.276-7.384
				L221.995,429.656z"/>
			<path style="fill:#2F3234;" d="M276.028,429.587c0,0-0.069,9.04-0.069,10.489c0,1.449,0.828,2.001,2.415,2.691
				s17.873,4.141,32.641,3.588c2.346-0.207,2.829-2.139,0.621-2.967s-17.183-9.04-19.736-10.627
				c-2.553-1.587-4.003-5.383-4.003-5.383L276.028,429.587z"/>
			<path style="fill:#43474A;" d="M220.103,270.883c0,0,0.261,145.979,0,159.558c10.035,4.942,16.713,2.089,16.713,2.089
				l8.04-156.686L220.103,270.883z"/>
			<path style="fill:#43474A;" d="M277.555,269.578c0,0,0,104.457,12.274,157.991c-3.395,3.917-14.624,2.873-14.624,2.873
				l-23.309-154.858L277.555,269.578z"/>
			<path style="fill:#43474A;" d="M225.81,294.172c8.971,6.625,37.265,4.003,48.858-3.036c-0.414-6.487,0-17.942,0-17.942
				l-48.444,0.828L225.81,294.172z"/>
			<path style="fill:#FFFFFF;" d="M250.98,160.246c-20.326,0-33.479,10.163-34.276,48.425c-0.797,38.262-2.591,64.965-2.591,64.965
				s33.479,11.558,67.555,0c-0.996-17.138-1.272-53.801-1.794-63.371C278.082,177.384,271.307,160.246,250.98,160.246z"/>
			<path style="fill:#E7E7E7;" d="M248.375,181.756c11.25,0.091,15.431-11.738,16.791-17.428c-3.775-2.71-8.438-4.083-14.186-4.083
				c-7.015,0-13.175,1.212-18.268,4.37C233.261,171.917,236.177,181.658,248.375,181.756z"/>
			<path style="fill:#DCA86B;" d="M258.331,166.479l-1.672-29.363l-16.763,0.798l-2.407,28.688
				C242.437,168.984,252.968,169.032,258.331,166.479z"/>
			<polygon style="fill:#264371;" points="258.402,236.724 247.861,252.665 237.249,236.724 245.345,176.323 250.305,176.323 			"/>
			<path style="fill:#264371;" d="M241.941,171.883c0.077,2.887,3.503,4.812,3.503,4.812h4.913c0,0,2.379-1.953,2.837-4.181
				c-1.099-2.38-4.047-4.196-4.047-4.196l-2.196-0.027L241.941,171.883z"/>
			<path style="fill:#FFFFFF;" d="M238.019,160.437c0.103,1.234,4.501,7.361,9.918,7.867c-2.372,2.334-6.965,8.564-6.965,8.564
				s-5.061-8.256-5.164-13.86C235.757,161.568,238.019,160.437,238.019,160.437z"/>
			<path style="fill:#FFFFFF;" d="M257.896,160.437c-0.103,1.234-4.913,6.297-9.918,7.867c1.825,2.378,6.965,8.564,6.965,8.564
				s5.061-8.256,5.164-13.86C260.158,161.568,257.896,160.437,257.896,160.437z"/>
			<path style="fill:#E7E7E7;" d="M227.967,168.448c-11.841,6.202-26.657,31.119-28.536,60.815
				c2.79,2.636,13.585,2.158,16.652-0.022C216.772,220.968,215.282,183.665,227.967,168.448z"/>
			<g>
				<polygon style="fill:#A64B58;" points="250.239,297.742 242.744,302.938 242.744,305.316 250.239,300.12 				"/>
				<g>
					<polygon style="fill:#CC505D;" points="250.239,300.12 249.107,300.875 189.957,287.027 188.825,242.412 189.957,241.657 
						250.239,254.75 					"/>
					<polygon style="fill:#A64B58;" points="249.107,300.875 188.825,287.782 188.825,242.412 249.107,255.504 					"/>
				</g>
				<polygon style="fill:#F9ECD7;" points="248.013,300.696 243.287,304.061 187.731,288.108 183.723,246.338 189.153,243.088 
					248.013,255.831 				"/>
				<g>
					<polygon style="fill:#A64B58;" points="243.876,304.561 242.744,305.316 183.594,291.469 182.462,246.853 183.594,246.098 
						243.876,259.191 					"/>
					<polygon style="fill:#CC505D;" points="242.744,305.316 182.462,292.223 182.462,246.853 242.744,259.945 					"/>
				</g>
			</g>
			<path style="fill:#EEBF83;" d="M210.985,283.116c1.443,1.512,4.26,4.123,4.054,6.322c-0.206,2.199,1.649,7.49,2.68,8.52
				c1.031,1.031-1.855,4.191-4.672-1.237c-0.618,0.825-0.806,1.971-0.806,1.971l0.406,0.081c0,0,0.108,2.002-2.84,1.758
				c-2.948-0.243-7.736-0.649-9.71-1.758c-1.975-1.109-1.773-3.327-1.812-4.842c-0.108-4.22,2.678-10.765,2.678-10.765
				L210.985,283.116z"/>
			<path style="fill:#EEBF83;" d="M210.985,283.116c-0.78,0.65-6.65,2.057-9.987,0.453c0.26-5.98,0.171-48.592,0.259-51.7
				c0.089-3.108,13.676-1.975,13.587,1.755C214.755,237.354,210.985,283.116,210.985,283.116z"/>
			<path style="fill:#FFFFFF;" d="M199.429,228.314c2.476,0.727,8.542,2.031,16.299,0.355c0.646-0.14,1.256,0.356,1.256,1.017v4.433
				c0,0.427-0.256,0.809-0.653,0.967c-1.795,0.716-7.365,2.298-17.658-0.104c-0.477-0.111-0.812-0.548-0.804-1.038
				c0.03-1.793,0.145-3.561,0.235-4.716C198.155,228.571,198.795,228.128,199.429,228.314z"/>
			<g>
				<g>
					<path style="fill:#EDC88F;" d="M228.837,126.985c1.722,4.46,1.687,7.894-1.226,9.186c-2.91,1.292-9.202-0.409-10.923-4.87
						c-1.724-4.465-0.758-9.127,2.155-10.419C221.754,119.591,227.117,122.523,228.837,126.985z"/>
					<path style="fill:#EDC88F;" d="M221.647,132.28c2.339,15.275,13.229,25.529,28.595,24.173
						c13.978-1.234,23.644-20.772,24.037-38.594c0.393-17.824-9.158-31.922-26.036-31.661
						C222.394,86.597,216.717,100.09,221.647,132.28z"/>
					<path style="fill:#EDC88F;" d="M266.037,125.563c-1.777,4.441-1.785,7.873,1.112,9.201c2.892,1.327,9.206-0.294,10.982-4.735
						c1.779-4.443,0.87-9.115-2.025-10.444C273.213,118.257,267.813,121.122,266.037,125.563z"/>
					
						<linearGradient id="SVGID_1_" gradientUnits="userSpaceOnUse" x1="442.0495" y1="71.5768" x2="435.4931" y2="75.6523" gradientTransform="matrix(0.9679 0.2513 -0.2513 0.9679 -158.1968 -54.4719)">
						<stop  offset="0" style="stop-color:#BE8078"/>
						<stop  offset="1" style="stop-color:#E6B8AC;stop-opacity:0"/>
					</linearGradient>
					<path style="fill:url(#SVGID_1_);" d="M243.652,123.949c4.094-0.819,7.544-0.146,8.312,2.89
						c0.768,3.037-3.375,4.89-6.774,5.289S240.465,124.587,243.652,123.949z"/>
					<g>
						<path style="fill:#946053;" d="M241.851,124.522c1.553-0.641,3.242-1.041,4.973-1.008c1.699,0.038,3.571,0.425,4.883,1.853
							c0.631,0.715,0.913,1.838,0.59,2.76c-0.296,0.925-0.911,1.637-1.59,2.185c-1.365,1.113-2.986,1.721-4.603,2.159
							c1.489-0.769,2.96-1.595,4.123-2.697c0.565-0.555,1.057-1.191,1.228-1.887c0.204-0.685,0.016-1.385-0.455-1.924
							c-0.966-1.102-2.635-1.572-4.217-1.731C245.167,124.083,243.506,124.223,241.851,124.522z"/>
					</g>
					<g>
						
							<linearGradient id="SVGID_00000124139180558813645130000001154946835006354097_" gradientUnits="userSpaceOnUse" x1="423.5758" y1="63.4419" x2="426.2962" y2="72.6718" gradientTransform="matrix(0.9679 0.2513 -0.2513 0.9679 -158.1968 -54.4719)">
							<stop  offset="0" style="stop-color:#C99A6A"/>
							<stop  offset="1" style="stop-color:#C99A6A;stop-opacity:0"/>
						</linearGradient>
						<path style="fill:url(#SVGID_00000124139180558813645130000001154946835006354097_);" d="M241.867,112.877
							c0.375,2.808,1.95,11.046-5.95,11.705c-7.9,0.659-6.023-8.891-6.023-8.891S238.258,113.245,241.867,112.877z"/>
						<path style="fill:#5A3921;" d="M239.245,123.766c-0.15,0.576-0.738,0.922-1.315,0.773c-0.576-0.15-0.922-0.738-0.773-1.315
							c0.15-0.576,0.738-0.922,1.315-0.773C239.049,122.601,239.395,123.189,239.245,123.766z"/>
						<path style="fill:#864E26;" d="M240.163,112.374c-9.058,0.63-14.028,4.231-8.271,4.185
							C237.649,116.513,246.136,111.958,240.163,112.374z"/>
					</g>
					<g>
						
							<linearGradient id="SVGID_00000168795760980107760130000011992354591464665534_" gradientUnits="userSpaceOnUse" x1="600.2651" y1="17.5673" x2="602.9855" y2="26.7972" gradientTransform="matrix(-0.9679 0.2513 0.2513 0.9679 833.3581 -54.4719)">
							<stop  offset="0" style="stop-color:#C99A6A"/>
							<stop  offset="1" style="stop-color:#C99A6A;stop-opacity:0"/>
						</linearGradient>
						<path style="fill:url(#SVGID_00000168795760980107760130000011992354591464665534_);" d="M250.749,112.877
							c-0.375,2.808-1.95,11.046,5.95,11.705c7.9,0.659,6.023-8.891,6.023-8.891S254.358,113.245,250.749,112.877z"/>
						<path style="fill:#5A3921;" d="M253.37,123.766c0.15,0.576,0.738,0.922,1.315,0.773c0.577-0.15,0.922-0.738,0.773-1.315
							c-0.15-0.576-0.738-0.922-1.315-0.773C253.567,122.601,253.22,123.189,253.37,123.766z"/>
						<path style="fill:#864E26;" d="M252.453,112.374c9.058,0.63,14.028,4.231,8.271,4.185
							C254.967,116.513,246.479,111.958,252.453,112.374z"/>
					</g>
					<path style="fill:#DFA09B;" d="M231.332,126.686c0,0.608-1.577,1.101-3.523,1.101c-1.946,0-3.523-0.493-3.523-1.101
						s1.577-1.101,3.523-1.101C229.754,125.585,231.332,126.077,231.332,126.686z"/>
					<path style="fill:#DFA09B;" d="M268.479,126.686c0,0.608-1.578,1.101-3.523,1.101c-1.946,0-3.523-0.493-3.523-1.101
						s1.577-1.101,3.523-1.101C266.902,125.585,268.479,126.077,268.479,126.686z"/>
				</g>
				<path style="fill:#9D652C;" d="M222.872,142.873c3.295,7.462,7.897,12.843,13.168,14.914c9.539,3.749,17.803,2.584,24.866-1.396
					c15.892-8.956,12.718-54.319,12.718-54.319l-4.488,0.877c0,0,1.178,29.778-2.96,34.654c-1.762,2.078-8.893-1.971-18.33-2.062
					c-11.156-0.109-20.319,4.859-21.948,2.633c-1.954-2.663-4.923-18.236-1.413-35.453c1.398-6.862-6.86-0.221-6.86-0.221
					S218.614,133.226,222.872,142.873z"/>
				<path style="fill:#9D652C;" d="M237.477,84.527l2.833-2.036c3.768-3.128,16.426-6.366,21.003-2.598
					c-1.083,0.021-0.333,0.662-1.422,0.718c6.314,1.42,16.673,4.126,17.4,17.891c0.329,6.245-0.63,14.865-1.816,20.824
					c-1.446,0.147-1.372-0.504-2.519,0.42c-0.893,0.72-1.101,1.077-1.429,1.735c0.28-6.985-1.984-16.462-7.037-21.987
					c-2.359-2.578-8.654-1.425-12.071-2.155c-4.28-0.915-8.285-2.431-11.568-5.222C237.046,88.884,234.823,87.173,237.477,84.527z"
					/>
				<path style="fill:#9D652C;" d="M242.904,82.372c4.086,1.394,9.393,2.483,11.712,6.425l-1.269-0.382
					c4.285,5.133-8.457,19.102-11.743,22.435c-3.752,3.808-8.626,5.734-13.313,6.862c-0.111-0.823-0.015-1.729,0.175-2.588
					c0.191-0.488,0.334-0.957,0.377-1.355c-0.143,0.422-0.275,0.882-0.377,1.355c-0.525,1.321-1.467,2.802-2.218,3.573
					c-1.751,1.798-5.885,7.411-6.278,11.776c-5.701-22.693-6.768-35.832,3.826-45.364C229.171,80.272,240.095,81.414,242.904,82.372
					z"/>
				<g>
					<path style="fill:#412B24;" d="M238.772,139.263c-0.356,1.478,0.404,2.904,1.253,3.981c0.897,1.094,2.15,1.846,3.514,2.24
						c1.37,0.395,2.825,0.506,4.291,0.48c0.733-0.019,1.468-0.112,2.211-0.151c0.737-0.096,1.472-0.224,2.229-0.296
						c-0.701,0.274-1.424,0.492-2.144,0.741c-0.741,0.149-1.483,0.342-2.244,0.425c-1.521,0.176-3.093,0.107-4.612-0.316
						c-1.503-0.449-2.934-1.36-3.819-2.691c-0.467-0.644-0.755-1.395-0.936-2.152C238.408,140.764,238.36,139.922,238.772,139.263z"
						/>
				</g>
			</g>
		</g>
		<g>
			<path style="fill:#242A2B;" d="M77.669,102.636c-5.611-7.826-21.852-10.336-29.235-2.805c-7.382,7.53-7.382,22.886,2.067,39.423
				c9.45,16.537-5.463,22.148-5.463,22.148s14.47,5.611,19.342-9.154c4.873-14.765-2.658-29.53,1.772-33.221
				c4.429-3.691,7.826-2.215,7.826-2.215L77.669,102.636z"/>
			<path style="fill:#181514;" d="M55.497,425.949c-0.788,2.451-1.731,9.126-2.07,12.973c-0.154,1.751,2.728,6.469,5.435,6.469
				c2.707,0,6.115-4.344,5.844-6.315c-0.333-2.426-1.428-13.092-1.428-13.092L55.497,425.949z"/>
			<path style="fill:#EEBF83;" d="M56.067,425.572c-0.469,6.994-1.047,11.354,0.254,13.822c1,1.897,2.33,2.676,2.758,2.676
				c0.416,0,1.653-0.883,2.657-2.745c1.376-2.551,0.982-6.94,1.157-13.414C62.982,422.594,56.067,425.572,56.067,425.572z"/>
			<path style="fill:#3E3F40;" d="M131.788,261.962c0.097,0.729-1.483,1.189-1.483,1.189l-0.36-2.14L131.788,261.962z"/>
			<path style="fill:#3E3F40;" d="M72.666,270.725c-0.227,1.528,4.031,1.187,4.031,1.187l0.538-4.274L72.666,270.725z"/>
			<path style="fill:#454546;" d="M121.088,172.243c3.188,1.829,7.035,6.4,14.004,21.196c3.769,8.002,8.807,21.657,10.239,26.907
				c-9.132,5.876-15.364,2.701-15.364,2.701l-10.352-39.257L121.088,172.243z"/>
			<path style="fill:#181514;" d="M126.42,334.055c-2.828,11.762-11.476,78.954-13.036,91.906c-4.571,0.234-6.59,0-6.59,0
				s-3.454-30.96-4.344-47.206c-0.89-16.246,2.225-36.498,7.344-46.513C114.912,322.227,126.578,327.856,126.42,334.055z"/>
			<path style="fill:#181514;" d="M88.711,335.976c-4.073,9.688-22.696,73.47-25.433,90.23c-3.591,0-7.782-0.035-7.782-0.035
				s0.924-31.596,2.292-49.724c1.368-18.128,7.867-35.4,14.194-43.267C78.311,325.314,90.732,328.34,88.711,335.976z"/>
			<path style="fill:#181514;" d="M130.503,262.96c1.441,11.769-2.642,60.526-4.083,71.094c-1.441,10.568-18.734,9.127-18.494-0.24
				c0.24-9.367-3.603-60.767-3.603-60.767L130.503,262.96z"/>
			<path style="fill:#181514;" d="M77.423,263.681c-2.642,12.009-5.764,63.649-6.485,69.653c-0.72,6.005,14.651,12.97,17.774,2.642
				c3.122-10.328,19.199-62.627,19.199-62.627L77.423,263.681z"/>
			<path style="fill:#181514;" d="M88.718,241.845c-5.343,7.193-10.7,14.032-11.699,24.747
				c-0.999,10.715,11.532,19.895,28.082,16.699c18.519-3.575,25.384-12.153,25.402-20.331c0.015-6.785-3.014-20.148-3.014-20.148
				L88.718,241.845z"/>
			<path style="fill:#FFFFFF;" d="M121.088,172.243c-0.298,3.127,1.484,8.986,3.275,12.208c2.734,4.919,7.295,11.017,8.039,14.59
				c0.744,3.573-2.829,11.315-3.722,15.335c-0.893,4.02-1.191,21.439-1.191,28.436c0,6.997-38.958,12.311-40.495-0.744
				c-3.597-30.536-11.017-38.411-13.548-46.6c-2.531-8.188-4.171-21.269,1.638-24.268
				C84.314,166.437,98.607,158.546,121.088,172.243z"/>
			<path style="fill:#4E4E50;" d="M86.678,165.633c1.555,4.732,7.101,18.306,13.101,33.398c4.38,11.016,3.185,16.457,3.583,58.395
				c-16.507,4.613-30.697,13.298-30.697,13.298s13.382-41.243,9.903-50.347c-2.539-6.645-6.192-15.199-7.468-18.306
				c-0.173-3.893,1.289-22.279-1.711-29.895C77.852,168.562,86.678,165.633,86.678,165.633z"/>
			<path style="fill:#EEBF83;" d="M66.954,273.114c1.33,1.394,3.928,3.802,3.738,5.829c-0.19,2.027,1.521,6.906,2.471,7.857
				c0.95,0.95-1.711,3.865-4.308-1.141c-0.57,0.76-0.743,1.817-0.743,1.817l0.374,0.075c0,0,0.1,1.846-2.619,1.621
				c-2.719-0.224-7.133-0.599-8.954-1.621c-1.821-1.023-1.635-3.067-1.671-4.465c-0.1-3.891,2.469-9.927,2.469-9.927L66.954,273.114
				z"/>
			<path style="fill:#4E4E50;" d="M68.933,272.626c-0.719,0.599-9.111,1.678-12.188,0.2c0.24-5.515,1.108-43.012,1.19-45.878
				c0.082-2.866,1.605-19.04,2.178-22.888c0.573-3.848,2.784-28.822,14.002-32.343c6.714,9.99,2.442,28.458,1.618,33.193
				c-1.339,7.699-3.682,25.776-4.017,27.952C71.194,236.262,68.933,272.626,68.933,272.626z"/>
			<path style="fill:#181514;" d="M113.384,425.961c0.587,0.993,7.719,15.592,15.889,16.766c2.302,0.09,1.146,2.665-2.076,2.665
				c-6.489,0-13.497-8.132-17.515-8.9c-4.017-0.767-4.559-1.264-4.469-2.393c0.09-1.128,1.58-8.139,1.58-8.139H113.384z"/>
			<g>
				<path style="fill:#DCA86E;" d="M90.442,167.3l0.434-20.587l12.617-0.286l1.371,21.493
					C99.775,171.386,93.318,170.669,90.442,167.3z"/>
				<path style="fill:#EEBF83;" d="M76.536,110.605v28.115c0,12.016,9.741,21.757,21.757,21.757l0,0
					c12.016,0,21.757-9.741,21.757-21.757v-28.115H76.536z"/>
				<path style="fill:#242A2B;" d="M77.046,143.4l1.4-20.706c0,0,8.295,0.415,18.524-2.074c15.169-3.69,19.354-8.433,19.354-8.433
					l3.726,23.969c0,0,1.995-1.667,2.787-8.274c0.385-0.803,0.385-0.803,0.385-0.803c3.841-8.002,3.587-17.365-0.682-25.147l0,0
					c-2.933-5.348-7.322-9.79-17.966-10.482s-21.012,4.244-25.234,10.409l0,0l0,0c-3.739,0-10.156,4.383-11.4,14.751
					C66.695,126.975,77.046,143.4,77.046,143.4z"/>
				<g>
					<ellipse style="fill:#DA939F;" cx="113.827" cy="135.574" rx="2.663" ry="0.726"/>
					<g>
						
							<linearGradient id="SVGID_00000163769561936627859650000007067631620045756567_" gradientUnits="userSpaceOnUse" x1="-12202.6797" y1="-648.9662" x2="-12201.3604" y2="-640.5868" gradientTransform="matrix(-0.9915 -0.13 -0.13 0.9915 -12074.7871 -817.3545)">
							<stop  offset="0" style="stop-color:#B9906C"/>
							<stop  offset="1" style="stop-color:#B9906C;stop-opacity:0"/>
						</linearGradient>
						<path style="opacity:0.39;fill:url(#SVGID_00000163769561936627859650000007067631620045756567_);" d="M104.303,123.62
							c-0.684,1.931-2.994,8.925,2.5,10.569c5.494,1.645,5.697-7.371,5.697-7.371S106.803,124.419,104.303,123.62z"/>
						<path style="fill:#242A2B;" d="M105.691,123.427c6.07,1.101,9.787,4.989,4.274,3.623
							C104.452,125.684,102.522,122.853,105.691,123.427z"/>
						<path style="fill:none;stroke:#654431;stroke-width:0.9914;stroke-miterlimit:10;" d="M108.714,133.932
							c-0.954-3.523-4.713-3.032-5.164-0.284"/>
					</g>
					<g>
						
							<linearGradient id="SVGID_00000130630470914283502800000016416844145830568613_" gradientUnits="userSpaceOnUse" x1="-960.4385" y1="825.0544" x2="-959.1188" y2="833.4338" gradientTransform="matrix(0.9915 -0.13 0.13 0.9915 934.2368 -817.3545)">
							<stop  offset="0" style="stop-color:#B9906C"/>
							<stop  offset="1" style="stop-color:#B9906C;stop-opacity:0"/>
						</linearGradient>
						<path style="opacity:0.39;fill:url(#SVGID_00000130630470914283502800000016416844145830568613_);" d="M93.451,123.62
							c0.684,1.931,2.994,8.925-2.5,10.569c-5.494,1.645-5.697-7.371-5.697-7.371S90.952,124.419,93.451,123.62z"/>
						<path style="fill:#242A2B;" d="M92.064,123.427c-6.07,1.101-9.787,4.989-4.274,3.623
							C93.302,125.684,95.233,122.853,92.064,123.427z"/>
						<path style="fill:none;stroke:#654431;stroke-width:0.9914;stroke-miterlimit:10;" d="M89.041,133.932
							c0.954-3.523,4.713-3.032,5.164-0.284"/>
					</g>
					<path style="fill:#DA939F;" d="M86.876,135.574c0,0.401-1.192,0.726-2.663,0.726c-1.471,0-2.663-0.325-2.663-0.726
						c0-0.401,1.192-0.726,2.663-0.726C85.684,134.848,86.876,135.173,86.876,135.574z"/>
					<g>
						<g>
							<path style="fill:#936053;" d="M97.683,137.146c0.731-0.403,1.536-0.696,2.39-0.797c0.841-0.092,1.782,0.003,2.517,0.618
								c0.341,0.312,0.575,0.843,0.45,1.315c-0.013,0.244-0.155,0.436-0.23,0.652c-0.13,0.18-0.259,0.363-0.406,0.524
								c-0.606,0.634-1.373,1.017-2.135,1.349c0.67-0.496,1.37-0.954,1.868-1.582c0.521-0.586,0.733-1.461,0.138-1.924
								c-0.532-0.499-1.389-0.626-2.179-0.602C99.289,136.725,98.488,136.918,97.683,137.146z"/>
						</g>
					</g>
					<g>
						<path style="fill:#936053;" d="M94.446,146.302c-0.021,0.851,0.548,1.56,1.146,2.053c0.624,0.495,1.398,0.769,2.196,0.828
							c0.801,0.062,1.614-0.049,2.421-0.225c0.404-0.088,0.797-0.229,1.201-0.34c0.395-0.138,0.786-0.292,1.195-0.419
							c-0.355,0.232-0.728,0.435-1.097,0.655c-0.393,0.163-0.781,0.35-1.189,0.489c-0.817,0.277-1.692,0.416-2.578,0.358
							c-0.879-0.076-1.775-0.411-2.412-1.047c-0.326-0.306-0.574-0.682-0.765-1.076C94.418,147.171,94.295,146.712,94.446,146.302z"
							/>
					</g>
				</g>
			</g>
			<path style="fill:#E6E6E6;" d="M90.535,162.856c0.765,1.851,4.371,6.24,9.274,7.097c-1.625,2.59-2.712,7.211-2.712,7.211
				s-7.92-4.617-9.489-10.981C88.71,163.843,90.535,162.856,90.535,162.856z"/>
			<path style="fill:#E6E6E6;" d="M99.809,169.953c1.563-0.259,4.811-4.101,4.834-6.04c1.173,1.128,1.773,2.104,1.773,2.104
				s2.004,6.011-0.751,9.706C103.662,172.529,99.809,169.953,99.809,169.953z"/>
			<path style="fill:#4E4E50;" d="M108.903,166.52c0,0,11.74,39.278,10.558,91.818c6.548,0.997,12.327,3.624,12.327,3.624
				s-5.102-39.877-2.738-46.576c2.364-6.699,3.826-13.167,3.495-16.118c-0.412-3.671-5.254-9.847-7.117-13.186
				c-1.985-3.559-4.034-9.846-4.339-13.839C120.183,171.248,113.282,167.696,108.903,166.52z"/>
			<path style="fill:#E6E6E6;" d="M124.619,204.132c-5.929,0.141-35.056,1.823-32.953,3.926c1.635,1.635,14.443,1.823,25.801-0.14
				C122.061,207.124,130.509,203.992,124.619,204.132z"/>
			<path style="fill:#E6E6E6;" d="M108.05,202.213c5.481-0.417,13.103-0.761,12.868,0c-0.235,0.761-26.145,2.326-24.92,1.71
				C97.386,203.226,102.569,202.63,108.05,202.213z"/>
			<path style="fill:none;stroke:#D0D0D0;stroke-width:0.6878;stroke-miterlimit:10;" d="M99.809,169.953
				c0,0,2.168,9.523,7.329,19.377c3.427,6.543,5.484,10.843,3.116,17.261c-1.83,4.962-1.004,10.367-0.847,13.206
				c0.158,2.839,3.628,29.815,3.628,29.815"/>
			<path style="fill:#3E3F40;" d="M86.678,165.633c0,0-1.355,0.197-1.98,0.719c-0.362,3.8,0.687,13.369,0.623,18.612
				c0.691,0.604,2.331,0.691,2.331,0.691l-2.677,8.461c0,0,15.533,13.642,18.209,27.888c0-9.94-0.855-16.664-3.013-22.362
				S86.678,165.633,86.678,165.633z"/>
			<path style="fill:#3E3F40;" d="M108.903,166.52c0,0,1.745-0.186,2.583,0.871c2.767,4.312,7.646,13.977,7.646,13.977l-1.565,1.867
				l4.244,3.516c0,0,1.125,25.346-3.604,34.017c-0.791-10.015-2.884-24.195-3.914-30.197
				C113.263,184.568,108.903,166.52,108.903,166.52z"/>
			<path style="fill:#EEBF83;" d="M125.51,441.276c-6.492-3.988-11.631-14.479-12.126-15.315h-6.59
				c-0.148,0.689-0.292,1.273-0.452,2.15c0.765,0.59,2.936,0.465,4.55,1.577c3.495,2.409,5.194,6.549,7.496,8.886
				C121.27,441.498,124.373,442.038,125.51,441.276z"/>
			<polygon style="fill:#181514;" points="106.363,435.036 108.087,445.391 108.77,445.391 109.335,435.441 			"/>
			<path style="fill:#EEBF83;" d="M77.873,138.618c-0.763-2.798-2.374-4.494-4.24-3.053c-1.866,1.442-0.547,11.887,4.24,10.43
				C79.824,145.402,77.873,138.618,77.873,138.618z"/>
			<g>
				<path style="fill:#EDC88F;" d="M169.182,191.728c0.254,2.392,1.339,3.619,3.04,5.316c6.544,1.694,8.388-0.966,9.203-7.151
					c0.278-2.589,0.923-4.246-0.664-4.58C179.176,184.978,169.182,191.728,169.182,191.728z"/>
				
					<rect x="147.912" y="175.532" transform="matrix(0.3203 -0.9473 0.9473 0.3203 -44.5581 294.4728)" style="fill:#4689A5;" width="70.043" height="5.512"/>
				<g>
					<g>
						
							<rect x="172.083" y="209.22" transform="matrix(0.322 -0.9467 0.9467 0.322 -82.7795 306.666)" style="fill:#355A71;" width="1.272" height="3.817"/>
						
							<rect x="174.76" y="201.35" transform="matrix(0.3221 -0.9467 0.9467 0.3221 -73.5212 303.8458)" style="fill:#355A71;" width="1.272" height="3.817"/>
						
							<rect x="174.065" y="208.116" transform="matrix(0.322 -0.9468 0.9468 0.322 -79.7186 306.8813)" style="fill:#355A71;" width="0.653" height="1.96"/>
						
							<rect x="174.64" y="206.424" transform="matrix(0.322 -0.9468 0.9468 0.322 -77.727 306.2772)" style="fill:#355A71;" width="0.653" height="1.96"/>
						
							<rect x="175.216" y="204.732" transform="matrix(0.322 -0.9468 0.9468 0.322 -75.734 305.6764)" style="fill:#355A71;" width="0.653" height="1.96"/>
					</g>
					<g>
						
							<rect x="177.439" y="193.476" transform="matrix(0.322 -0.9467 0.9467 0.322 -64.2431 301.0612)" style="fill:#355A71;" width="1.272" height="3.817"/>
						
							<rect x="176.743" y="200.242" transform="matrix(0.322 -0.9467 0.9467 0.322 -70.4529 304.0658)" style="fill:#355A71;" width="0.653" height="1.96"/>
						
							<rect x="177.318" y="198.55" transform="matrix(0.322 -0.9467 0.9467 0.322 -68.4606 303.4634)" style="fill:#355A71;" width="0.653" height="1.96"/>
						
							<rect x="177.894" y="196.858" transform="matrix(0.322 -0.9467 0.9467 0.322 -66.4683 302.861)" style="fill:#355A71;" width="0.653" height="1.96"/>
					</g>
					<g>
						
							<rect x="180.117" y="185.601" transform="matrix(0.3221 -0.9467 0.9467 0.3221 -54.9803 298.2415)" style="fill:#355A71;" width="1.272" height="3.817"/>
						
							<rect x="179.421" y="192.368" transform="matrix(0.322 -0.9467 0.9467 0.322 -61.183 301.2612)" style="fill:#355A71;" width="0.653" height="1.96"/>
						
							<rect x="179.997" y="190.676" transform="matrix(0.322 -0.9467 0.9467 0.322 -59.1901 300.6604)" style="fill:#355A71;" width="0.653" height="1.96"/>
						
							<rect x="180.572" y="188.984" transform="matrix(0.322 -0.9467 0.9467 0.322 -57.1977 300.058)" style="fill:#355A71;" width="0.653" height="1.96"/>
					</g>
					<g>
						
							<rect x="182.795" y="177.727" transform="matrix(0.322 -0.9467 0.9467 0.322 -45.7023 295.4543)" style="fill:#355A71;" width="1.272" height="3.817"/>
						
							<rect x="182.099" y="184.494" transform="matrix(0.322 -0.9468 0.9468 0.322 -51.9062 298.4713)" style="fill:#355A71;" width="0.653" height="1.96"/>
						
							<rect x="182.675" y="182.802" transform="matrix(0.322 -0.9468 0.9468 0.322 -49.9138 297.8689)" style="fill:#355A71;" width="0.653" height="1.96"/>
						
							<rect x="183.25" y="181.11" transform="matrix(0.322 -0.9468 0.9468 0.322 -47.9207 297.268)" style="fill:#355A71;" width="0.653" height="1.96"/>
					</g>
					<g>
						
							<rect x="185.473" y="169.853" transform="matrix(0.3221 -0.9467 0.9467 0.3221 -36.4402 292.6355)" style="fill:#355A71;" width="1.272" height="3.817"/>
						
							<rect x="184.778" y="176.62" transform="matrix(0.322 -0.9467 0.9467 0.322 -42.6412 295.6568)" style="fill:#355A71;" width="0.653" height="1.96"/>
						
							<rect x="185.353" y="174.928" transform="matrix(0.3221 -0.9467 0.9467 0.3221 -40.6662 295.0216)" style="fill:#355A71;" width="0.653" height="1.96"/>
						
							<rect x="185.929" y="173.236" transform="matrix(0.322 -0.9467 0.9467 0.322 -38.6566 294.452)" style="fill:#355A71;" width="0.653" height="1.96"/>
					</g>
					<g>
						
							<rect x="188.152" y="161.979" transform="matrix(0.322 -0.9467 0.9467 0.322 -27.1606 289.849)" style="fill:#355A71;" width="1.272" height="3.817"/>
						
							<rect x="187.456" y="168.746" transform="matrix(0.322 -0.9467 0.9467 0.322 -33.3707 292.8538)" style="fill:#355A71;" width="0.653" height="1.96"/>
						
							<rect x="188.031" y="167.054" transform="matrix(0.322 -0.9467 0.9467 0.322 -31.3783 292.2514)" style="fill:#355A71;" width="0.653" height="1.96"/>
						
							<rect x="188.607" y="165.361" transform="matrix(0.322 -0.9467 0.9467 0.322 -29.386 291.649)" style="fill:#355A71;" width="0.653" height="1.96"/>
					</g>
					<g>
						
							<rect x="190.83" y="154.105" transform="matrix(0.3221 -0.9467 0.9467 0.3221 -17.8993 287.0311)" style="fill:#355A71;" width="1.272" height="3.817"/>
						
							<rect x="190.134" y="160.872" transform="matrix(0.322 -0.9467 0.9467 0.322 -24.101 290.0493)" style="fill:#355A71;" width="0.653" height="1.96"/>
						
							<rect x="190.71" y="159.179" transform="matrix(0.3221 -0.9467 0.9467 0.3221 -22.1265 289.4175)" style="fill:#355A71;" width="0.653" height="1.96"/>
						
							<rect x="191.285" y="157.487" transform="matrix(0.322 -0.9467 0.9467 0.322 -20.1155 288.846)" style="fill:#355A71;" width="0.653" height="1.96"/>
					</g>
					<g>
						
							<rect x="193.508" y="146.231" transform="matrix(0.322 -0.9467 0.9467 0.322 -8.6199 284.2421)" style="fill:#355A71;" width="1.272" height="3.817"/>
						
							<rect x="192.812" y="152.998" transform="matrix(0.322 -0.9468 0.9468 0.322 -14.823 287.258)" style="fill:#355A71;" width="0.653" height="1.96"/>
						
							<rect x="193.388" y="151.305" transform="matrix(0.322 -0.9468 0.9468 0.322 -12.8306 286.6556)" style="fill:#355A71;" width="0.653" height="1.96"/>
						
							<rect x="193.963" y="149.613" transform="matrix(0.322 -0.9468 0.9468 0.322 -10.8373 286.0546)" style="fill:#355A71;" width="0.653" height="1.96"/>
					</g>
				</g>
				<path style="fill:#DCA86B;" d="M182.572,183.71c2.555-0.624,2.874,0.503,2.81,2.746c-0.178,6.257-3.825,12.881-7.364,10.606
					c-4.033-2.592-0.386-8.342,1.334-11.801C180.201,183.553,182.572,183.71,182.572,183.71z"/>
				<path style="fill:#EDC88F;" d="M170.658,193.404c-0.495-0.423-1.736-2.134-1.736-2.134c4.289-2.71,6.487-8.769,8.163-10.063
					c1.193-0.921,2.527,0.288,5.772,1.951c1.313,0.673,0.701,2.445-0.961,2.601c-1.185,0.165-1.597-0.004-2.529-0.07
					C177.846,193.508,170.658,193.404,170.658,193.404z"/>
			</g>
			<path style="fill:#454546;" d="M130.5,224.561c3.288,3.909,10.073,3.265,14.786-1.232c4.713-4.497,28.029-25.808,28.029-25.808
				c-0.187-2.591-1.527-4.905-3.81-6.993c0,0-27.884,16.833-33.72,20.663C130.082,214.934,127.456,220.942,130.5,224.561z"/>
		</g>
		<g>
			<path style="fill:#D6DCE5;" d="M403.521,177.195c-3.588,1.395-34.953,27.088-49.196,40.229c6.977,9.967,16.6,13.86,16.6,13.86
				l19.481-14.657L403.521,177.195z"/>
			<path style="fill:#181514;" d="M403.455,431.275c-0.932,1.577-12.258,10.798-25.232,12.661c-3.656,0.143-1.72,3.297,3.297,4.301
				c5.018,1.004,21.433-1.003,27.813-2.222c6.38-1.219,7.24-2.007,7.096-3.799c-0.143-1.792-2.51-10.941-2.51-10.941H403.455z"/>
			<path style="fill:#181514;" d="M450.268,431.609c1.058,2.505,3.228,7.514,4.342,10.075c1.113,2.561,1.67,7.069-9.685,7.069
				c-11.355,0-11.578-4.286-10.298-6.624c1.28-2.338,3.284-10.465,3.284-10.465L450.268,431.609z"/>
			<path style="fill:#2B2B2A;" d="M442.705,274.678c1.034,8.27,9.17,156.861,9.17,156.861s-6.227,3.243-17.056,0.259
				c-0.517-33.596-26.061-153.786-26.061-153.786L442.705,274.678z"/>
			<path style="fill:#2B2B2A;" d="M386.718,274.678c0,0,15.797,132.826,14.763,157.119c5.537,2.206,13.955,0,13.955,0l0.258-129.991
				l-3.279-24.03L386.718,274.678z"/>
			<path style="fill:#262625;" d="M389.637,299.922c-1.718-15.141-2.92-25.244-2.92-25.244l25.698,3.098l2.23,16.341
				c-1.831-0.838-2.925-1.339-2.925-1.339L389.637,299.922z"/>
			<path style="fill:#262625;" d="M442.705,274.678c0.288,2.303,1.126,15.488,2.187,33.313
				c-11.921-5.492-31.348-14.379-33.052-15.159c-1.883-9.178-3.083-14.821-3.083-14.821L442.705,274.678z"/>
			<path style="fill:#262625;" d="M438.055,364.57c0.429,4.923-1.142,9.082-3.509,9.288s-4.634-3.617-5.063-8.541
				c-0.429-4.923,1.142-9.082,3.509-9.288C435.359,355.823,437.625,359.646,438.055,364.57z"/>
			<path style="fill:#262625;" d="M406.094,364.065c0.429,4.923-1.142,9.082-3.509,9.288c-2.367,0.206-4.634-3.617-5.063-8.541
				c-0.429-4.923,1.142-9.082,3.509-9.288C403.398,355.318,405.665,359.142,406.094,364.065z"/>
			<path style="fill:#D6DCE5;" d="M418.119,168.71c20.805,0.575,29.636,12.847,26.039,42.126
				c-2.597,21.135-1.988,50.989-1.454,63.842c-36.116,9.981-55.987,0-55.987,0s-3.527-62.181,11.997-91.089
				C402.939,175.724,410.513,168.732,418.119,168.71z"/>
			<path style="fill:#C4004B;" d="M418.325,175.531c-1.25-0.099-3.23-0.785-3.23-0.785l-1.313,3.214l2.056,5.1l2.007,0.05
				c0,0,2.856-0.936,3.699-3.856c0.843-2.92-1.274-3.567-1.274-3.567L418.325,175.531z"/>
			<g>
				<path style="fill:#EDC88F;" d="M428.338,168.719l-0.343-13.759l-15.902,0.481l0.264,10.582l0.167,6.164
					c0,0-0.081,3.194,5.621,3.344c5.702,0.15,10.28-3.825,10.28-3.825L428.338,168.719z"/>
				<polygon style="fill:#DCA86B;" points="427.994,154.96 411.839,155.239 412.103,161.378 412.447,169.348 428.348,169.069 				
					"/>
				<g>
					<path style="fill:#EDC88F;" d="M403.5,137.006c1.657,4.293,1.624,7.598-1.18,8.841c-2.801,1.244-8.857-0.394-10.514-4.688
						c-1.659-4.298-0.729-8.785,2.075-10.029C396.682,129.889,401.844,132.711,403.5,137.006z"/>
					<path style="fill:#FFFFFF;" d="M414.348,153.193c0.328-0.102,0.712-0.203,1.116-0.312c-0.072-0.336-0.116-0.57-0.115-0.655
						L414.348,153.193z"/>
					<path style="fill:#EDC88F;" d="M396.579,142.102c2.252,14.703,12.734,24.573,27.524,23.267
						c13.455-1.188,22.759-19.994,23.137-37.149c0.378-17.156-8.815-30.726-25.06-30.475
						C397.298,98.131,391.834,111.118,396.579,142.102z"/>
					<path style="fill:#EDC88F;" d="M439.306,135.637c-1.711,4.275-1.718,7.577,1.07,8.857c2.784,1.277,8.861-0.283,10.571-4.557
						c1.712-4.277,0.837-8.773-1.949-10.053C446.213,128.605,441.015,131.363,439.306,135.637z"/>
					
						<linearGradient id="SVGID_00000003788192441194362010000013649636085822843549_" gradientUnits="userSpaceOnUse" x1="-10768.5918" y1="2992.6389" x2="-10774.9033" y2="2996.5618" gradientTransform="matrix(0.9679 0.2513 -0.2513 0.9679 11600.4531 -54.4719)">
						<stop  offset="0" style="stop-color:#BE8078"/>
						<stop  offset="1" style="stop-color:#E6B8AC;stop-opacity:0"/>
					</linearGradient>
					<path style="fill:url(#SVGID_00000003788192441194362010000013649636085822843549_);" d="M417.759,134.084
						c3.941-0.788,7.261-0.141,8,2.782c0.739,2.923-3.249,4.707-6.52,5.091C415.968,142.341,414.693,134.697,417.759,134.084z"/>
					<g>
						<path style="fill:#946053;" d="M416.026,134.635c1.494-0.617,3.12-1.002,4.787-0.971c1.635,0.037,3.437,0.409,4.701,1.784
							c0.607,0.689,0.879,1.769,0.568,2.657c-0.285,0.891-0.876,1.576-1.53,2.103c-1.314,1.071-2.874,1.657-4.431,2.078
							c1.434-0.74,2.849-1.535,3.968-2.596c0.544-0.534,1.018-1.146,1.182-1.816c0.197-0.659,0.015-1.333-0.438-1.852
							c-0.93-1.061-2.536-1.514-4.059-1.666C419.218,134.212,417.619,134.348,416.026,134.635z"/>
					</g>
					<g>
						<path style="fill:#946053;" d="M413.063,148.824c-0.342,1.423,0.389,2.795,1.206,3.832c0.863,1.053,2.069,1.777,3.383,2.156
							c1.319,0.381,2.719,0.487,4.13,0.462c0.705-0.018,1.413-0.108,2.129-0.145c0.71-0.093,1.417-0.215,2.146-0.285
							c-0.675,0.264-1.371,0.473-2.064,0.713c-0.714,0.143-1.428,0.329-2.16,0.41c-1.464,0.169-2.978,0.103-4.44-0.304
							c-1.447-0.432-2.824-1.31-3.676-2.59c-0.449-0.62-0.726-1.343-0.901-2.071C412.712,150.269,412.666,149.458,413.063,148.824z"
							/>
					</g>
					<g>
						
							<linearGradient id="SVGID_00000022531081743215271280000009750999416975839369_" gradientUnits="userSpaceOnUse" x1="-10786.374" y1="2984.8088" x2="-10783.7549" y2="2993.6929" gradientTransform="matrix(0.9679 0.2513 -0.2513 0.9679 11600.4531 -54.4719)">
							<stop  offset="0" style="stop-color:#C99A6A"/>
							<stop  offset="1" style="stop-color:#C99A6A;stop-opacity:0"/>
						</linearGradient>
						<path style="fill:url(#SVGID_00000022531081743215271280000009750999416975839369_);" d="M416.041,123.427
							c0.361,2.703,1.877,10.632-5.727,11.267c-7.604,0.634-5.797-8.558-5.797-8.558S412.567,123.781,416.041,123.427z"/>
						<path style="fill:#5A3921;" d="M413.518,133.907c-0.144,0.555-0.711,0.888-1.265,0.744c-0.555-0.144-0.888-0.711-0.744-1.265
							c0.144-0.555,0.711-0.888,1.266-0.744C413.329,132.786,413.662,133.352,413.518,133.907z"/>
						<path style="fill:#864E26;" d="M414.401,122.942c-8.719,0.606-13.502,4.072-7.961,4.028
							C411.981,126.926,420.151,122.542,414.401,122.942z"/>
					</g>
					<g>
						
							<linearGradient id="SVGID_00000173133162308927346720000001198639989103672223_" gradientUnits="userSpaceOnUse" x1="11816.2666" y1="-2883.6111" x2="11818.8848" y2="-2874.7271" gradientTransform="matrix(-0.9679 0.2513 0.2513 0.9679 12592.0078 -54.4719)">
							<stop  offset="0" style="stop-color:#C99A6A"/>
							<stop  offset="1" style="stop-color:#C99A6A;stop-opacity:0"/>
						</linearGradient>
						<path style="fill:url(#SVGID_00000173133162308927346720000001198639989103672223_);" d="M424.591,123.427
							c-0.361,2.703-1.877,10.632,5.727,11.267c7.604,0.634,5.797-8.558,5.797-8.558S428.064,123.781,424.591,123.427z"/>
						<path style="fill:#5A3921;" d="M427.114,133.907c0.144,0.555,0.711,0.888,1.265,0.744c0.555-0.144,0.888-0.711,0.744-1.265
							c-0.144-0.555-0.711-0.888-1.266-0.744C427.303,132.786,426.97,133.352,427.114,133.907z"/>
						<path style="fill:#864E26;" d="M426.231,122.942c8.719,0.606,13.502,4.072,7.961,4.028
							C428.651,126.926,420.481,122.542,426.231,122.942z"/>
					</g>
					<ellipse style="fill:#DFA09B;" cx="402.509" cy="136.718" rx="3.391" ry="1.06"/>
					<path style="fill:#DFA09B;" d="M441.657,136.718c0,0.585-1.518,1.06-3.391,1.06c-1.873,0-3.391-0.475-3.391-1.06
						c0-0.585,1.518-1.06,3.391-1.06C440.138,135.658,441.657,136.132,441.657,136.718z"/>
				</g>
				<path id="XMLID_7_" style="fill:#B77420;" d="M443.92,106.895c4.045,0.887,7.323,4.37,6.367,13.725l-0.647,9.634
					c-3.202-0.283-4.202,0.121-4.723,2.311c-1.593-3.18-3.472-16.818-4.326-20.549L443.92,106.895z"/>
				<path id="XMLID_6_" style="fill:#B77420;" d="M399.796,117.206c-2.081,5.282-2.986,17.802-2.986,17.802
					c-0.845-3.821-3.249-4.044-4.921-1.979c-1.486-7.356-1.857-20.287,0.016-23.676C392.912,107.53,401.223,113.583,399.796,117.206
					z"/>
			</g>
			<path style="fill:#FFFFFF;" d="M428.277,167.742c-0.854,2.066-4.601,6.254-9.952,7.788c1.32,3.47,2.385,9.045,2.385,9.045
				s9.083-6.014,10.835-13.118C430.315,168.844,428.277,167.742,428.277,167.742z"/>
			<path style="fill:#FFFFFF;" d="M418.325,175.531c-1.745-0.289-5.871-4.425-5.896-6.59c-1.309,1.259-2.093,4.941-2.093,4.941
				s-1.284,5.463,3.349,9.97C414.717,180.655,418.325,175.531,418.325,175.531z"/>
			<path style="fill:#C4004B;" d="M417.845,183.11c0,0-6.426,32.807-7.857,62.425c-1.543,7.274-8.398,10.842-8.398,10.842
				s-3.927-4.732-5.297-11.79c0.29-19.896,19.544-61.527,19.544-61.527L417.845,183.11z"/>
			<g>
				<path style="fill:#EBC68D;" d="M352.762,173.878c1.003,3.009-4.618,2.436-3.952,5.949c0.196,1.035-2.223,4.512-4.586,5.181
					c-2.364,0.669-3.775,2.808-5.377-0.797c-1.01-2.274-2.635-4.439-4.583-5.341c-3.004-1.391-5.233-2.743-8.662-4.908
					c-1.381-0.872-1.884-2.341-0.786-3.334C333.783,175.814,343.218,176.632,352.762,173.878z"/>
			</g>
			<path style="fill:#D6DCE5;" d="M369.074,232.807c-5.083,2.405-11.188-1.519-14.235-8.012
				c-5.847-12.46-16.726-40.602-16.726-40.602c4.217-0.539,7.847-2.129,10.766-4.991c0,0,14.489,24.548,21.373,36.526
				C375.905,225.566,373.78,230.58,369.074,232.807z"/>
			<g>
				
					<ellipse transform="matrix(0.576 -0.8174 0.8174 0.576 29.3356 339.929)" style="fill:#7FD6E6;" cx="342.369" cy="141.684" rx="33.849" ry="33.849"/>
				<g>
					<path style="fill:#5FA76E;" d="M354.059,110.981c0.46,0.229,1.054,0.339,1.269,0.806c0.173,0.375-0.04,0.876-0.429,1.012
						c-0.083,0.029-0.175,0.046-0.237,0.108c-0.106,0.106-0.071,0.284-0.016,0.423c0.209,0.53,0.602,0.988,0.712,1.547
						c0.11,0.559-0.281,1.28-0.842,1.181c-0.177-0.032-0.331-0.139-0.495-0.212c-0.632-0.28-1.462,0.042-1.741,0.675
						c-0.139,0.315-0.15,0.671-0.266,0.995c-0.116,0.324-0.403,0.638-0.745,0.596c-0.137-0.017-0.26-0.089-0.387-0.141
						c-0.748-0.31-1.623,0.053-2.216,0.604c-0.592,0.551-0.997,1.272-1.526,1.884c-0.358,0.414-0.957,0.799-1.413,0.496
						c-0.355-0.236-0.379-0.749-0.294-1.167c0.085-0.418,0.241-0.852,0.11-1.258c-0.208-0.646-1.039-0.917-1.276-1.552
						c-0.205-0.549,0.115-1.159,0.522-1.581c0.407-0.421,0.916-0.755,1.228-1.251c0.672-1.067,0.024-2.705-1.197-3.024
						c-0.197-0.051-0.412-0.078-0.567-0.21c-0.325-0.278-0.151-0.858,0.218-1.074c0.369-0.215,0.828-0.175,1.252-0.121
						c0.424,0.054,0.878,0.108,1.259-0.086c0.444-0.227,0.673-0.752,0.679-1.25c0.001-0.046-0.002-0.092-0.005-0.138
						c1.966,0.312,3.927,0.804,5.862,1.481C353.086,110.211,353.656,110.781,354.059,110.981z"/>
					<path style="fill:#5FA76E;" d="M343.99,107.872c0,0.001-0.001,0.002-0.001,0.003c-0.672,0.974-2.818,0.82-3.617,1.821
						c-0.655,0.82-0.085,2.015,0.49,2.893c-0.397,0.179-0.795,0.358-1.192,0.537c-0.051,0.876,1.286,1.251,1.425,2.118
						c0.14,0.874-1.004,1.38-1.887,1.316c-0.882-0.064-1.864-0.348-2.586,0.164c-0.162-1.063,0.299-2.199,1.157-2.849
						c-0.564-0.134-1.002-0.681-1.009-1.261c-0.006-0.482,0.241-1.016-0.032-1.414c-0.37-0.541-1.252-0.206-1.651,0.314
						c-0.399,0.52-0.667,1.211-1.276,1.453c-0.376,0.15-0.797,0.087-1.202,0.089c-1.02,0.004-2.03,0.456-2.712,1.214
						c-0.295,0.327-0.542,0.717-0.925,0.934c-0.387,0.219-0.867,0.232-1.247,0.463c-0.648,0.394-0.758,1.436-0.207,1.957
						c0.438-0.414,1.256-0.165,1.488,0.391c0.232,0.556-0.062,1.238-0.568,1.564c0.419,0.693,1.428,0.845,2.16,0.498
						c0.732-0.347,1.221-1.064,1.549-1.805c0.224-0.505,0.596-1.151,1.129-1.004c0.187,0.271,0.374,0.541,0.56,0.812
						c0.288-0.526,1.063-1.077,1.35-0.551c0.092,0.169,0.06,0.381,0.14,0.556c0.223,0.49,0.942,0.27,1.471,0.173
						c0.641-0.117,1.36,0.119,1.727,0.658c0.367,0.539,0.284,1.366-0.241,1.752c-0.135,0.099-0.301,0.178-0.371,0.331
						c-0.216,0.473,0.635,0.715,0.84,1.192c0.219,0.511-0.473,1.013-1.015,0.889c-0.542-0.125-0.927-0.585-1.347-0.949
						c-0.713-0.618-1.721-1.009-2.608-0.689c-0.167,0.06-0.333,0.15-0.43,0.3c-0.253,0.389,0.09,0.895,0.462,1.173
						c0.371,0.279,0.833,0.553,0.895,1.013c0.096,0.717-0.846,1.111-1.567,1.05c-0.721-0.061-1.523-0.298-2.115,0.12
						c-0.76,0.537-0.928,1.995-1.853,1.9c-0.23-0.024-0.437-0.158-0.667-0.187c-0.705-0.09-1.118,0.753-1.32,1.435
						c-0.202,0.682-0.661,1.516-1.358,1.375c-0.461-0.093-0.803-0.617-1.268-0.551c-0.337,0.047-0.543,0.384-0.702,0.686
						c-0.408,0.776-0.816,1.552-1.224,2.328c-0.343-0.889-0.685-1.778-1.028-2.667c-0.282,0.61-1.283,0.347-1.613-0.238
						c-0.33-0.585-0.295-1.308-0.54-1.934c-0.245-0.625-1.06-1.146-1.566-0.704c-0.728,0.635,0.349,2.051-0.325,2.743
						c-0.234,0.241-0.6,0.286-0.897,0.441c-1.044,0.544-0.881,2.064-0.566,3.198c0.268,0.964,0.536,1.928,0.805,2.892
						c0.052,0.185,0.112,0.384,0.265,0.501c0.595,0.455,1.393-0.862,2.041-0.487c0.813,0.47-0.75,2.002,0.01,2.555
						c0.298,0.217,0.795,0.075,1.016,0.371c0.284,0.38-0.266,0.893-0.177,1.36c0.076,0.399,0.562,0.561,0.799,0.891
						c0.232,0.323,0.204,0.786,0.458,1.093c0.672,0.814,1.996-0.424,3.004-0.108c1.181,0.371,0.893,2.411,1.996,2.974
						c0.809,0.413,1.767-0.265,2.67-0.167c1.058,0.114,1.684,1.2,2.187,2.137c0.503,0.937,1.283,1.976,2.343,1.88
						c0.775-0.071,1.692-0.712,2.207-0.128c0.169,0.192,0.213,0.46,0.314,0.696c0.326,0.758,1.189,1.092,1.895,1.52
						c0.815,0.494,1.522,1.24,1.755,2.164c0.233,0.924-0.109,2.022-0.941,2.486c-0.211,0.118-0.458,0.204-0.589,0.407
						c-0.137,0.212-0.104,0.486-0.132,0.737c-0.078,0.705-0.738,1.297-1.447,1.299c-0.356,0.001-0.781-0.104-1.017,0.162
						c-0.172,0.193-0.144,0.483-0.174,0.739c-0.086,0.735-0.692,1.285-1.258,1.762c-1.265,1.068-2.227,2.674-3.796,3.204
						c-2.073,0.701-1.873,1.016-1.838,1.821c0.049,1.114,0.551,2.214,1.426,2.907c0.367,0.291,0.847,0.685,0.662,1.115
						c-0.104,0.241-0.386,0.352-0.646,0.384c-0.741,0.091-1.52-0.297-1.894-0.943c-0.546-0.944-0.308-2.348-1.204-2.97
						c-0.501-0.348-1.257-0.346-1.582-0.863c-0.171-0.272-0.166-0.616-0.156-0.937c0.07-2.182,0.141-4.365,0.211-6.547
						c0.018-0.55,0.03-1.126-0.217-1.618c-0.426-0.849-1.451-1.164-2.231-1.706c-1.202-0.837-1.867-2.382-1.65-3.83
						c0.089-0.593,0.301-1.248-0.02-1.755c-0.262-0.412-0.825-0.609-0.97-1.075c-0.135-0.436,0.171-0.89,0.532-1.169
						c0.361-0.279,0.796-0.472,1.09-0.821c0.741-0.878-0.07-2.498-1.217-2.432c-0.174,0.01-0.353,0.051-0.521,0.004
						c-0.581-0.16-0.455-1.008-0.634-1.583c-0.359-1.15-2.239-1.466-2.258-2.671c-0.008-0.512,0.333-1.12-0.036-1.475
						c-0.363-0.349-0.979-0.002-1.464-0.14c-0.494-0.141-0.697-0.738-0.704-1.251c-0.007-0.514,0.1-1.049-0.088-1.527
						c-0.208-0.529-0.727-0.859-1.095-1.294c-0.643-0.761-0.799-1.831-0.71-2.823s0.391-1.953,0.558-2.935
						c0.229-1.354,0.197-2.726,0.061-4.096c6.57-10.442,18.258-16.328,30.256-15.753c-0.002,0.002-0.003,0.005-0.005,0.007
						C343.99,107.873,343.99,107.873,343.99,107.872z"/>
					<path style="fill:#5FA76E;" d="M343.989,107.874c-0.366,1.365-2.734,0.715-3.617,1.821
						C341.172,108.695,343.318,108.848,343.989,107.874z"/>
					<path style="fill:#5FA76E;" d="M373.811,151.615c-0.123-0.18-0.305-0.313-0.43-0.491c-0.433-0.616-0.052-1.452,0.295-2.121
						c0.347-0.669,0.612-1.591,0.047-2.089c-0.506-0.446-1.373-0.148-1.719,0.43c-0.346,0.579-0.302,1.307-0.177,1.97
						c0.125,0.663,0.321,1.33,0.242,1.999c-0.177,1.498-1.644,2.536-2.056,3.987c-0.21,0.738-0.129,1.524-0.206,2.288
						c-0.077,0.763-0.38,1.587-1.068,1.926c-0.333,0.164-0.715,0.193-1.069,0.306c-0.938,0.301-1.599,1.197-1.832,2.154
						c-0.105,0.431-0.146,0.901-0.42,1.25c-0.424,0.54-1.217,0.574-1.833,0.877c-1.165,0.572-1.817,2.164-3.114,2.195
						c-0.545,0.013-1.009,0.069-1.5,0.305c-2.912,1.399-2.567,0.605-4.013,0.499c-0.482-0.035-0.964-0.071-1.445-0.106
						c-0.276-0.398,0.027-0.959,0.426-1.234c0.398-0.275,0.893-0.412,1.237-0.753c0.775-0.768,0.579-2.34,1.585-2.765
						c0.68-0.287,1.634,0.134,2.111-0.43c0.557-0.66-0.303-1.821,0.245-2.489c0.368-0.449,1.121-0.334,1.559-0.715
						c0.828-0.72-0.26-2.114,0.089-3.154c0.093-0.278,0.292-0.528,0.294-0.821c0.005-0.696-1.021-0.88-1.641-0.564
						c-0.62,0.316-1.149,0.894-1.845,0.924c-1.489,0.065-1.975-2.241-3.403-2.667c-0.939-0.28-2.273,0.223-2.73-0.643
						c-0.112-0.213-0.128-0.464-0.116-0.705c0.057-1.12,0.705-2.193,1.669-2.766c0.389-0.231,0.887-0.474,0.907-0.927
						c0.008-0.174-0.064-0.34-0.115-0.506c-0.302-0.979,0.152-2.137,1.038-2.649c0.888-0.514,2.28-0.622,2.441-1.635
						c0.067-0.422-0.139-0.877,0.028-1.269c0.151-0.353,0.55-0.524,0.923-0.616c1.13-0.278,2.336-0.137,3.456-0.454
						c0.697-0.197,1.338-0.566,2.039-0.751c0.701-0.184,1.532-0.144,2.04,0.373c-0.328,0.297,0.269,0.768,0.701,0.674
						c0.432-0.094,0.922-0.363,1.272-0.092c0.38,0.294,0.177,0.884,0.081,1.355c-0.287,1.407,1.036,2.897,2.467,2.779
						c-0.161-0.432-0.131-0.932,0.08-1.342c0.594,0.267,0.969,0.854,1.474,1.266c0.504,0.411,1.354,0.591,1.741,0.068
						c0.547-0.74-0.457-1.937,0.115-2.658c-0.668,0.336-1.595-0.247-1.582-0.994c0.005-0.249,0.094-0.493,0.075-0.741
						c-0.019-0.248-0.214-0.517-0.46-0.478c-0.392,0.062-0.373,0.742-0.751,0.861c-0.817-0.453-0.118-1.815-0.603-2.614
						c-0.15-0.247-0.404-0.415-0.575-0.649c-0.251-0.343-0.298-0.79-0.455-1.185c-0.157-0.395-0.526-0.783-0.942-0.696
						c-0.503,0.104-0.625,0.792-0.465,1.28c0.16,0.488,0.489,0.938,0.484,1.452c-0.005,0.514-0.647,1.021-1.014,0.662
						c-0.099-0.097-0.149-0.232-0.196-0.362c-0.107-0.296-0.213-0.592-0.32-0.888c-0.23-0.638-0.484-1.311-1.017-1.732
						c-0.533-0.421-1.436-0.447-1.802,0.124c-0.261,0.408-0.2,1.012-0.587,1.303c-0.394,0.295-0.974,0.055-1.438,0.219
						c-0.412,0.145-0.652,0.577-1.032,0.793c-0.665,0.377-1.641-0.183-1.651-0.947c-0.006-0.484,0.302-0.965,0.159-1.427
						c-0.088-0.285-0.329-0.491-0.514-0.724c-0.325-0.41-0.47-1.044-0.129-1.44c0.355-0.413,1.025-0.341,1.512-0.096
						c0.487,0.245,0.913,0.627,1.442,0.757c0.529,0.13,1.225-0.152,1.244-0.696c0.023-0.647-0.894-1.101-0.742-1.73
						c0.093-0.389,0.557-0.564,0.958-0.564c0.4,0,0.806,0.109,1.195,0.014c0.99-0.242,1.217-1.539,1.154-2.556
						c-0.013-0.213-0.022-0.451,0.117-0.612c0.196-0.228,0.588-0.161,0.802,0.049c0.215,0.21,0.303,0.513,0.403,0.797
						c0.283,0.8,0.825,1.622,1.661,1.765c0.836,0.143,1.732-0.899,1.198-1.558c-0.081-0.1-0.19-0.187-0.226-0.311
						c-0.139-0.47,0.763-0.581,0.895-1.053c0.149-0.534-0.703-0.708-1.074-1.12c-0.627-0.696,0.199-2.13-0.602-2.614
						c-0.458-0.277-1.083,0.112-1.251,0.62c-0.168,0.508-0.021,1.06,0.125,1.575c0.045,0.158,0.088,0.331,0.022,0.481
						c-0.157,0.358-0.712,0.227-0.994-0.044c-0.282-0.271-0.546-0.651-0.936-0.645c-0.394,0.006-0.714,0.424-1.104,0.369
						c-0.306-0.043-0.498-0.373-0.518-0.681c-0.102-1.538,2.625-2.202,2.37-3.723c-0.137-0.817-1.14-1.612-0.633-2.267
						c0.374-0.483,1.187-0.19,1.55,0.302c0.362,0.492,0.521,1.132,0.971,1.545c0.388,0.357,0.97,0.457,1.473,0.311
						c2.819,3.938,4.762,8.441,5.701,13.179c-0.103,0.029-0.207,0.057-0.31,0.086c-0.287,0.079-0.643,0.264-0.584,0.555
						c0.022,0.106,0.1,0.195,0.12,0.302c0.031,0.169-0.092,0.324-0.208,0.451c-0.293,0.32-0.739,0.653-1.118,0.441
						c-0.326-0.183-0.414-0.701-0.782-0.769c-0.262-0.049-0.507,0.192-0.562,0.453c-0.055,0.261,0.026,0.529,0.106,0.783
						c0.021,0.066,0.043,0.134,0.09,0.186c0.088,0.097,0.235,0.106,0.357,0.157c0.498,0.208,0.538,1.094,1.077,1.127
						c0.277,0.017,0.49-0.223,0.689-0.416c0.199-0.193,0.514-0.361,0.737-0.196c0.231,0.17,0.179,0.576,0.42,0.73
						c0.152,0.097,0.326,0.045,0.505-0.026c0.416,5.165-0.352,10.498-2.461,15.603c-0.086-0.362-0.02-0.798,0.093-1.166
						C373.932,152.832,374.167,152.135,373.811,151.615z"/>
					<path style="fill:#5FA76E;" d="M363.271,128.592c0.68,0.698,1.531,0.575,0.921,1.057c-0.61,0.483-0.916-0.137-1.807,0.597
						s-1.526,0.346-0.874-0.635C362.164,128.631,362.595,127.899,363.271,128.592z"/>
					<path style="fill:#5FA76E;" d="M361.16,125.042c0,0,1.238,0.19,1.222,0.958c-0.016,0.768,0.257,1,0.257,1
						c0.154,0.44-0.464,1.407-0.849,0.437c-0.385-0.969-0.128-1.232-1.057-1.805C359.804,125.059,361.16,125.042,361.16,125.042z"/>
					<path style="fill:#5FA76E;" d="M360.408,126.984c0.386,0.568,0.947,0.265,0.783,0.912c-0.175,0.687-0.005,0.543-0.818,0.766
						c-0.813,0.223-1.052,0.177-0.828-0.874C359.768,126.736,360.022,126.415,360.408,126.984z"/>
					<path style="fill:#5FA76E;" d="M355.61,118.887c0.534,0.89,1.08,0.954,1.62,0.9c0.54-0.054,0.529-0.03,0.601,0.403
						c0.166,1.003-0.477,1.372-1.731,0.687c-1.254-0.685-0.305-1.222-1.237-1.854C353.93,118.392,355.076,117.997,355.61,118.887z"
						/>
					<path style="fill:#5FA76E;" d="M327.864,139.738c-1.729,0.386-0.939-1.264-2.116-1.07c-1.178,0.195-0.9-1.443-0.115-1.182
						C326.927,137.916,329.593,139.351,327.864,139.738z"/>
					<path style="fill:#5FA76E;" d="M323.068,137.004c-0.666-0.99-0.904-1.796-1.874-1.902c-0.97-0.106-0.695-0.652,0.251-0.4
						c0.946,0.252,1.785,1.474,2.542,2.074C324.619,137.276,323.734,137.994,323.068,137.004z"/>
					<path style="fill:#5FA76E;" d="M319.181,134.428c-0.658-0.557,0.003-1.092,0.467-0.267
						C320.003,134.792,319.839,134.985,319.181,134.428z"/>
					<path style="fill:#5FA76E;" d="M339.473,126.235c-1.609-0.343-0.939-1.264-1.853-0.956c-0.914,0.308-1.511-0.027-0.601-0.689
						c0.91-0.662,1.212-0.727,2.082-0.39C340.63,124.791,341.082,126.578,339.473,126.235z"/>
				</g>
				<path style="opacity:0.66;fill:#7FD6E6;" d="M328.908,163.364c15.591,6.729,33.685-0.455,40.414-16.045
					c4.263-9.878,2.94-20.759-2.566-29.119c9.171,9.531,12.261,23.993,6.691,36.898c-7.408,17.164-27.327,25.072-44.491,17.664
					c-16.874-7.283-24.802-26.658-18.025-43.619C308.15,143.064,315.348,157.512,328.908,163.364z"/>
			</g>
			<path style="fill:#84BCA9;" d="M443.052,222.919c-4.902,0.132-10.12-2.135-12.223-11.251
				c-3.549-15.379,3.325-30.144,6.906-35.876c-1.211-1.246-2.576-2.316-4.09-3.222c-2.27,5.966-11.251,18.222-18.434,16.726
				c-7.181-1.496-8.701-8.65-6.352-17.359c-4.081,2.784-7.682,7.068-10.144,11.653c-15.524,28.907-11.997,91.088-11.997,91.088
				s19.871,9.981,55.987,0C442.266,264.134,441.779,242.148,443.052,222.919z"/>
			<path style="fill:#EDC88F;" d="M456.041,288.82c-0.029,0.532-4.474,7.446-5.662,9.285c-0.193,0.299-0.344,0.619-0.453,0.958
				l-2.559,7.995c-0.086,0.269-0.033,0.564,0.142,0.786l0,0c0.364,0.462,1.077,0.423,1.389-0.076l3.329-5.333
				c0.238-0.38,0.825-0.205,0.815,0.244l-0.12,5.281l0.319,9.145c0.017,0.481,0.387,0.876,0.867,0.923l0.068,0.007
				c0.527,0.052,0.997-0.333,1.05-0.86l1.057-10.533c0,0,0.206,9.756,0.208,10.279c0.001,0.523,0.953,0.035,1.02-0.362l1.586-9.405
				c0,0-1.214,8.231-1.257,8.513c-0.075,0.487,0.778,0.169,0.778,0.169c0.238-0.122,0.415-0.337,0.488-0.594l2.339-8.26
				c0,0-1.022,5.995-1.16,6.744c-0.138,0.749,0.811,0.225,0.811,0.225c0.211-0.125,0.367-0.326,0.435-0.561l2.154-7.47
				c0.081-0.282,0.09-0.581,0.026-0.867l-3.569-15.827L456.041,288.82z"/>
			<path style="fill:#D6DCE5;" d="M449.668,236.16c5.997-1.488,11.283,1.762,11.893,6.983c2.589,22.171,1.217,53.378,1.217,53.378
				c-2.736,0.62-8.112-0.546-10.991-2.125c0,0-3.366-25.069-8.1-49.704C442.839,240.277,443.671,237.648,449.668,236.16z"/>
			<path style="fill:none;stroke:#5E8C72;stroke-width:2.0671;stroke-linecap:round;stroke-miterlimit:10;" d="M408.859,171.937
				c0,0-4.836,15.685,6.352,17.359c9.106,1.363,17.741-14.773,18.434-16.726"/>
			<path style="fill:none;stroke:#5E8C72;stroke-width:2.0671;stroke-linecap:round;stroke-miterlimit:10;" d="M437.735,175.792
				c-4.594,5.924-7.316,17.516-7.843,24.277c-0.527,6.762,0.615,22.217,10.801,22.48"/>
			<path style="fill:#D6DCE5;" d="M440.677,179.693c10.669,16.099,16.615,35.75,21.007,64.234
				c-8.989,5.521-17.596,3.342-17.596,3.342l-8.689-35.548c0,0-2.665-10.227-0.008-19.439
				C438.275,182.288,440.677,179.693,440.677,179.693z"/>
			<path style="fill:#5E8C72;" d="M386.496,268.817c0.099,3.7,0.221,5.861,0.221,5.861s19.871,9.981,55.987,0
				c-0.07-1.69-0.142-3.678-0.207-5.898C417.25,274.904,395.274,270.958,386.496,268.817z"/>
			<path style="fill:#C68419;" d="M392.777,112.046c-3.416-5.23-3.907-17.159,6.456-20.047c10.363-2.888,32.893-1.652,45.53-10.533
				c-0.78,5.283-4.417,7.305-4.417,7.305s8.543-0.469,12.794-7.5c6.296,13.818-2.684,20.08-7.188,20.752
				c1.546,0.916,6.566,1.643,9.069,0.508c-3.352,6.623-15.863,17.416-41.128,7.931c3.189,4.988,15.944,6.378,15.944,6.378
				s-10.63,2.371-20.605-4.17c-4.415,2.862-10.384,5.478-10.384,5.478S394.72,115.021,392.777,112.046z"/>
		</g>
	</g>
</g>
</svg>
